<svg id="visual" viewBox="0 0 900 900" width="900" height="900" xmlns="http://www.w3.org/2000/svg" xmlns:xlink="http://www.w3.org/1999/xlink" version="1.1"><g stroke-width="2" stroke-linejoin="bevel"><path d="M427.3 426.3L380.9 425.3L423.3 473.7Z" fill="#f5f5f5" stroke="#FFFFFF"></path><path d="M380.9 425.3L377.9 470.7L423.3 473.7Z" fill="#eeeeee" stroke="#FFFFFF"></path><path d="M427.3 426.3L427.3 377.9L380.9 425.3Z" fill="#ffffff" stroke="#FFFFFF"></path><path d="M473.7 473.7L474.7 426.3L427.3 426.3Z" fill="#ffffff" stroke="#FFFFFF"></path><path d="M427.3 426.3L474.7 426.3L427.3 377.9Z" fill="#f8f8f8" stroke="#FFFFFF"></path><path d="M423.3 473.7L473.7 473.7L427.3 426.3Z" fill="#f1f1f1" stroke="#FFFFFF"></path><path d="M328.6 427.3L377.9 470.7L380.9 425.3Z" fill="#ffffff" stroke="#FFFFFF"></path><path d="M328.6 427.3L332.6 473.7L377.9 470.7Z" fill="#eeeeee" stroke="#FFFFFF"></path><path d="M379.9 522.1L424.3 522.1L423.3 473.7Z" fill="#f5f5f5" stroke="#FFFFFF"></path><path d="M379.9 522.1L423.3 473.7L377.9 470.7Z" fill="#fcfcfc" stroke="#FFFFFF"></path><path d="M423.3 473.7L424.3 522.1L473.7 473.7Z" fill="#f5f5f5" stroke="#FFFFFF"></path><path d="M427.3 377.9L375.9 375.9L380.9 425.3Z" fill="#ffffff" stroke="#FFFFFF"></path><path d="M332.6 473.7L379.9 522.1L377.9 470.7Z" fill="#ffffff" stroke="#FFFFFF"></path><path d="M375.9 375.9L328.6 427.3L380.9 425.3Z" fill="#f8f8f8" stroke="#FFFFFF"></path><path d="M474.7 426.3L474.7 376.9L427.3 377.9Z" fill="#ffffff" stroke="#FFFFFF"></path><path d="M427.3 377.9L428.3 333.6L375.9 375.9Z" fill="#ffffff" stroke="#FFFFFF"></path><path d="M285.2 518.1L333.6 523.1L332.6 473.7Z" fill="#ffffff" stroke="#FFFFFF"></path><path d="M332.6 473.7L333.6 523.1L379.9 522.1Z" fill="#f8f8f8" stroke="#FFFFFF"></path><path d="M379.9 522.1L376.9 566.4L424.3 522.1Z" fill="#f1f1f1" stroke="#FFFFFF"></path><path d="M472.7 566.4L475.7 522.1L424.3 522.1Z" fill="#ffffff" stroke="#FFFFFF"></path><path d="M424.3 522.1L475.7 522.1L473.7 473.7Z" fill="#eeeeee" stroke="#FFFFFF"></path><path d="M473.7 473.7L518.1 475.7L474.7 426.3Z" fill="#fcfcfc" stroke="#FFFFFF"></path><path d="M474.7 426.3L519.1 379.9L474.7 376.9Z" fill="#ffffff" stroke="#FFFFFF"></path><path d="M375.9 375.9L328.6 375.9L328.6 427.3Z" fill="#fcfcfc" stroke="#FFFFFF"></path><path d="M474.7 376.9L428.3 333.6L427.3 377.9Z" fill="#f5f5f5" stroke="#FFFFFF"></path><path d="M375.9 375.9L328.6 331.6L328.6 375.9Z" fill="#f1f1f1" stroke="#FFFFFF"></path><path d="M475.7 522.1L518.1 475.7L473.7 473.7Z" fill="#f8f8f8" stroke="#FFFFFF"></path><path d="M518.1 475.7L520.1 424.3L474.7 426.3Z" fill="#ffffff" stroke="#FFFFFF"></path><path d="M333.6 523.1L376.9 566.4L379.9 522.1Z" fill="#ffffff" stroke="#FFFFFF"></path><path d="M376.9 566.4L428.3 567.4L424.3 522.1Z" fill="#f8f8f8" stroke="#FFFFFF"></path><path d="M428.3 333.6L379.9 328.6L375.9 375.9Z" fill="#fcfcfc" stroke="#FFFFFF"></path><path d="M281.2 423.3L284.2 475.7L328.6 427.3Z" fill="#ffffff" stroke="#FFFFFF"></path><path d="M328.6 427.3L284.2 475.7L332.6 473.7Z" fill="#f1f1f1" stroke="#FFFFFF"></path><path d="M333.6 523.1L333.6 566.4L376.9 566.4Z" fill="#ffffff" stroke="#FFFFFF"></path><path d="M328.6 375.9L281.2 423.3L328.6 427.3Z" fill="#f5f5f5" stroke="#FFFFFF"></path><path d="M520.1 424.3L519.1 379.9L474.7 426.3Z" fill="#ffffff" stroke="#FFFFFF"></path><path d="M474.7 376.9L472.7 329.6L428.3 333.6Z" fill="#eeeeee" stroke="#FFFFFF"></path><path d="M428.3 567.4L472.7 566.4L424.3 522.1Z" fill="#ffffff" stroke="#FFFFFF"></path><path d="M475.7 522.1L522.1 518.1L518.1 475.7Z" fill="#f5f5f5" stroke="#FFFFFF"></path><path d="M521.1 328.6L472.7 329.6L474.7 376.9Z" fill="#eeeeee" stroke="#FFFFFF"></path><path d="M424.3 281.2L378.9 286.2L379.9 328.6Z" fill="#ffffff" stroke="#FFFFFF"></path><path d="M283.2 568.4L333.6 566.4L333.6 523.1Z" fill="#ffffff" stroke="#FFFFFF"></path><path d="M376.9 566.4L379.9 612.8L428.3 567.4Z" fill="#ffffff" stroke="#FFFFFF"></path><path d="M522.1 565.4L522.1 518.1L475.7 522.1Z" fill="#f1f1f1" stroke="#FFFFFF"></path><path d="M518.1 475.7L566.4 425.3L520.1 424.3Z" fill="#ffffff" stroke="#FFFFFF"></path><path d="M237.8 523.1L285.2 518.1L284.2 475.7Z" fill="#ffffff" stroke="#FFFFFF"></path><path d="M284.2 475.7L285.2 518.1L332.6 473.7Z" fill="#ffffff" stroke="#FFFFFF"></path><path d="M379.9 328.6L328.6 331.6L375.9 375.9Z" fill="#ffffff" stroke="#FFFFFF"></path><path d="M328.6 375.9L282.2 377.9L281.2 423.3Z" fill="#ffffff" stroke="#FFFFFF"></path><path d="M284.2 333.6L282.2 377.9L328.6 375.9Z" fill="#ffffff" stroke="#FFFFFF"></path><path d="M424.3 281.2L379.9 328.6L428.3 333.6Z" fill="#ffffff" stroke="#FFFFFF"></path><path d="M379.9 328.6L378.9 286.2L328.6 331.6Z" fill="#f8f8f8" stroke="#FFFFFF"></path><path d="M568.4 475.7L566.4 425.3L518.1 475.7Z" fill="#eeeeee" stroke="#FFFFFF"></path><path d="M520.1 424.3L566.4 425.3L519.1 379.9Z" fill="#f1f1f1" stroke="#FFFFFF"></path><path d="M519.1 379.9L521.1 328.6L474.7 376.9Z" fill="#ffffff" stroke="#FFFFFF"></path><path d="M281.2 282.2L284.2 333.6L328.6 331.6Z" fill="#f1f1f1" stroke="#FFFFFF"></path><path d="M328.6 331.6L284.2 333.6L328.6 375.9Z" fill="#ffffff" stroke="#FFFFFF"></path><path d="M235.8 377.9L238.8 427.3L281.2 423.3Z" fill="#f5f5f5" stroke="#FFFFFF"></path><path d="M281.2 423.3L236.8 470.7L284.2 475.7Z" fill="#ffffff" stroke="#FFFFFF"></path><path d="M235.8 377.9L281.2 423.3L282.2 377.9Z" fill="#ffffff" stroke="#FFFFFF"></path><path d="M331.6 612.8L376.9 566.4L333.6 566.4Z" fill="#ffffff" stroke="#FFFFFF"></path><path d="M331.6 612.8L379.9 612.8L376.9 566.4Z" fill="#ffffff" stroke="#FFFFFF"></path><path d="M428.3 567.4L472.7 612.8L472.7 566.4Z" fill="#f1f1f1" stroke="#FFFFFF"></path><path d="M519.1 612.8L522.1 565.4L472.7 566.4Z" fill="#f8f8f8" stroke="#FFFFFF"></path><path d="M472.7 566.4L522.1 565.4L475.7 522.1Z" fill="#fcfcfc" stroke="#FFFFFF"></path><path d="M522.1 518.1L568.4 475.7L518.1 475.7Z" fill="#ffffff" stroke="#FFFFFF"></path><path d="M569.4 520.1L568.4 475.7L522.1 518.1Z" fill="#f5f5f5" stroke="#FFFFFF"></path><path d="M567.4 332.6L521.1 328.6L519.1 379.9Z" fill="#ffffff" stroke="#FFFFFF"></path><path d="M474.7 284.2L424.3 281.2L428.3 333.6Z" fill="#f1f1f1" stroke="#FFFFFF"></path><path d="M474.7 284.2L428.3 333.6L472.7 329.6Z" fill="#eeeeee" stroke="#FFFFFF"></path><path d="M238.8 427.3L236.8 470.7L281.2 423.3Z" fill="#ffffff" stroke="#FFFFFF"></path><path d="M285.2 518.1L283.2 568.4L333.6 523.1Z" fill="#ffffff" stroke="#FFFFFF"></path><path d="M237.8 523.1L283.2 568.4L285.2 518.1Z" fill="#ffffff" stroke="#FFFFFF"></path><path d="M379.9 612.8L428.3 617.8L428.3 567.4Z" fill="#f8f8f8" stroke="#FFFFFF"></path><path d="M428.3 617.8L472.7 612.8L428.3 567.4Z" fill="#f5f5f5" stroke="#FFFFFF"></path><path d="M521.1 328.6L474.7 284.2L472.7 329.6Z" fill="#f1f1f1" stroke="#FFFFFF"></path><path d="M283.2 568.4L331.6 612.8L333.6 566.4Z" fill="#f5f5f5" stroke="#FFFFFF"></path><path d="M379.9 612.8L425.3 660.2L428.3 617.8Z" fill="#ffffff" stroke="#FFFFFF"></path><path d="M569.4 565.4L569.4 520.1L522.1 565.4Z" fill="#eeeeee" stroke="#FFFFFF"></path><path d="M522.1 565.4L569.4 520.1L522.1 518.1Z" fill="#ffffff" stroke="#FFFFFF"></path><path d="M613.8 426.3L570.4 375.9L566.4 425.3Z" fill="#ffffff" stroke="#FFFFFF"></path><path d="M566.4 425.3L570.4 375.9L519.1 379.9Z" fill="#ffffff" stroke="#FFFFFF"></path><path d="M613.8 426.3L566.4 425.3L568.4 475.7Z" fill="#fcfcfc" stroke="#FFFFFF"></path><path d="M378.9 233.8L331.6 281.2L378.9 286.2Z" fill="#eeeeee" stroke="#FFFFFF"></path><path d="M378.9 286.2L331.6 281.2L328.6 331.6Z" fill="#eeeeee" stroke="#FFFFFF"></path><path d="M237.8 331.6L282.2 377.9L284.2 333.6Z" fill="#f8f8f8" stroke="#FFFFFF"></path><path d="M237.8 331.6L235.8 377.9L282.2 377.9Z" fill="#ffffff" stroke="#FFFFFF"></path><path d="M187.5 424.3L188.5 472.7L236.8 470.7Z" fill="#fcfcfc" stroke="#FFFFFF"></path><path d="M236.8 470.7L237.8 523.1L284.2 475.7Z" fill="#f8f8f8" stroke="#FFFFFF"></path><path d="M570.4 375.9L567.4 332.6L519.1 379.9Z" fill="#ffffff" stroke="#FFFFFF"></path><path d="M521.1 328.6L521.1 282.2L474.7 284.2Z" fill="#f8f8f8" stroke="#FFFFFF"></path><path d="M473.7 662.2L519.1 612.8L472.7 612.8Z" fill="#ffffff" stroke="#FFFFFF"></path><path d="M472.7 612.8L519.1 612.8L472.7 566.4Z" fill="#ffffff" stroke="#FFFFFF"></path><path d="M237.8 523.1L238.8 565.4L283.2 568.4Z" fill="#ffffff" stroke="#FFFFFF"></path><path d="M283.2 568.4L285.2 617.8L331.6 612.8Z" fill="#ffffff" stroke="#FFFFFF"></path><path d="M281.2 282.2L237.8 331.6L284.2 333.6Z" fill="#ffffff" stroke="#FFFFFF"></path><path d="M519.1 612.8L569.4 565.4L522.1 565.4Z" fill="#f1f1f1" stroke="#FFFFFF"></path><path d="M615.8 475.7L613.8 426.3L568.4 475.7Z" fill="#f5f5f5" stroke="#FFFFFF"></path><path d="M565.4 281.2L521.1 282.2L521.1 328.6Z" fill="#ffffff" stroke="#FFFFFF"></path><path d="M471.7 235.8L427.3 236.8L424.3 281.2Z" fill="#ffffff" stroke="#FFFFFF"></path><path d="M331.6 281.2L281.2 282.2L328.6 331.6Z" fill="#f1f1f1" stroke="#FFFFFF"></path><path d="M236.8 612.8L285.2 617.8L283.2 568.4Z" fill="#ffffff" stroke="#FFFFFF"></path><path d="M376.9 664.2L425.3 660.2L379.9 612.8Z" fill="#eeeeee" stroke="#FFFFFF"></path><path d="M615.8 475.7L568.4 475.7L612.8 518.1Z" fill="#ffffff" stroke="#FFFFFF"></path><path d="M570.4 375.9L615.8 330.6L567.4 332.6Z" fill="#ffffff" stroke="#FFFFFF"></path><path d="M471.7 235.8L424.3 281.2L474.7 284.2Z" fill="#eeeeee" stroke="#FFFFFF"></path><path d="M424.3 281.2L378.9 233.8L378.9 286.2Z" fill="#ffffff" stroke="#FFFFFF"></path><path d="M331.6 281.2L282.2 236.8L281.2 282.2Z" fill="#f8f8f8" stroke="#FFFFFF"></path><path d="M376.9 664.2L379.9 612.8L331.6 612.8Z" fill="#ffffff" stroke="#FFFFFF"></path><path d="M428.3 617.8L473.7 662.2L472.7 612.8Z" fill="#ffffff" stroke="#FFFFFF"></path><path d="M612.8 518.1L568.4 475.7L569.4 520.1Z" fill="#ffffff" stroke="#FFFFFF"></path><path d="M427.3 236.8L378.9 233.8L424.3 281.2Z" fill="#f5f5f5" stroke="#FFFFFF"></path><path d="M187.5 424.3L236.8 470.7L238.8 427.3Z" fill="#ffffff" stroke="#FFFFFF"></path><path d="M236.8 470.7L191.5 518.1L237.8 523.1Z" fill="#f5f5f5" stroke="#FFFFFF"></path><path d="M237.8 523.1L191.5 567.4L238.8 565.4Z" fill="#eeeeee" stroke="#FFFFFF"></path><path d="M187.5 424.3L238.8 427.3L235.8 377.9Z" fill="#eeeeee" stroke="#FFFFFF"></path><path d="M186.5 378.9L187.5 424.3L235.8 377.9Z" fill="#ffffff" stroke="#FFFFFF"></path><path d="M331.6 665.2L376.9 664.2L331.6 612.8Z" fill="#ffffff" stroke="#FFFFFF"></path><path d="M569.4 565.4L612.8 518.1L569.4 520.1Z" fill="#ffffff" stroke="#FFFFFF"></path><path d="M521.1 282.2L471.7 235.8L474.7 284.2Z" fill="#ffffff" stroke="#FFFFFF"></path><path d="M425.3 187.5L378.9 188.5L378.9 233.8Z" fill="#f8f8f8" stroke="#FFFFFF"></path><path d="M660.2 425.3L615.8 378.9L613.8 426.3Z" fill="#ffffff" stroke="#FFFFFF"></path><path d="M613.8 426.3L615.8 378.9L570.4 375.9Z" fill="#eeeeee" stroke="#FFFFFF"></path><path d="M567.4 332.6L565.4 281.2L521.1 328.6Z" fill="#f1f1f1" stroke="#FFFFFF"></path><path d="M188.5 472.7L191.5 518.1L236.8 470.7Z" fill="#f8f8f8" stroke="#FFFFFF"></path><path d="M238.8 565.4L236.8 612.8L283.2 568.4Z" fill="#ffffff" stroke="#FFFFFF"></path><path d="M428.3 709.5L473.7 662.2L425.3 660.2Z" fill="#ffffff" stroke="#FFFFFF"></path><path d="M425.3 660.2L473.7 662.2L428.3 617.8Z" fill="#ffffff" stroke="#FFFFFF"></path><path d="M519.1 612.8L569.4 616.8L569.4 565.4Z" fill="#f1f1f1" stroke="#FFFFFF"></path><path d="M378.9 233.8L328.6 234.8L331.6 281.2Z" fill="#ffffff" stroke="#FFFFFF"></path><path d="M190.5 331.6L235.8 377.9L237.8 331.6Z" fill="#f8f8f8" stroke="#FFFFFF"></path><path d="M190.5 331.6L186.5 378.9L235.8 377.9Z" fill="#f8f8f8" stroke="#FFFFFF"></path><path d="M187.5 424.3L143.1 427.3L188.5 472.7Z" fill="#ffffff" stroke="#FFFFFF"></path><path d="M285.2 617.8L331.6 665.2L331.6 612.8Z" fill="#f8f8f8" stroke="#FFFFFF"></path><path d="M474.7 709.5L522.1 664.2L473.7 662.2Z" fill="#ffffff" stroke="#FFFFFF"></path><path d="M615.8 283.2L565.4 281.2L567.4 332.6Z" fill="#ffffff" stroke="#FFFFFF"></path><path d="M521.1 282.2L523.1 236.8L471.7 235.8Z" fill="#ffffff" stroke="#FFFFFF"></path><path d="M191.5 567.4L236.8 612.8L238.8 565.4Z" fill="#f8f8f8" stroke="#FFFFFF"></path><path d="M285.2 617.8L281.2 661.2L331.6 665.2Z" fill="#ffffff" stroke="#FFFFFF"></path><path d="M236.8 236.8L234.8 285.2L281.2 282.2Z" fill="#eeeeee" stroke="#FFFFFF"></path><path d="M281.2 282.2L234.8 285.2L237.8 331.6Z" fill="#f8f8f8" stroke="#FFFFFF"></path><path d="M522.1 664.2L569.4 616.8L519.1 612.8Z" fill="#f8f8f8" stroke="#FFFFFF"></path><path d="M569.4 565.4L615.8 569.4L612.8 518.1Z" fill="#fcfcfc" stroke="#FFFFFF"></path><path d="M615.8 378.9L615.8 330.6L570.4 375.9Z" fill="#eeeeee" stroke="#FFFFFF"></path><path d="M565.4 281.2L523.1 236.8L521.1 282.2Z" fill="#fcfcfc" stroke="#FFFFFF"></path><path d="M425.3 187.5L378.9 233.8L427.3 236.8Z" fill="#f1f1f1" stroke="#FFFFFF"></path><path d="M566.4 233.8L523.1 236.8L565.4 281.2Z" fill="#ffffff" stroke="#FFFFFF"></path><path d="M234.8 285.2L190.5 331.6L237.8 331.6Z" fill="#eeeeee" stroke="#FFFFFF"></path><path d="M144.1 565.4L191.5 567.4L191.5 518.1Z" fill="#eeeeee" stroke="#FFFFFF"></path><path d="M191.5 518.1L191.5 567.4L237.8 523.1Z" fill="#ffffff" stroke="#FFFFFF"></path><path d="M328.6 234.8L282.2 236.8L331.6 281.2Z" fill="#f8f8f8" stroke="#FFFFFF"></path><path d="M613.8 612.8L615.8 569.4L569.4 565.4Z" fill="#ffffff" stroke="#FFFFFF"></path><path d="M661.2 471.7L613.8 426.3L615.8 475.7Z" fill="#f1f1f1" stroke="#FFFFFF"></path><path d="M236.8 612.8L281.2 661.2L285.2 617.8Z" fill="#f8f8f8" stroke="#FFFFFF"></path><path d="M233.8 661.2L281.2 661.2L236.8 612.8Z" fill="#ffffff" stroke="#FFFFFF"></path><path d="M428.3 709.5L425.3 660.2L377.9 709.5Z" fill="#f5f5f5" stroke="#FFFFFF"></path><path d="M473.7 662.2L522.1 664.2L519.1 612.8Z" fill="#f8f8f8" stroke="#FFFFFF"></path><path d="M661.2 471.7L615.8 475.7L660.2 518.1Z" fill="#fcfcfc" stroke="#FFFFFF"></path><path d="M661.2 471.7L660.2 425.3L613.8 426.3Z" fill="#eeeeee" stroke="#FFFFFF"></path><path d="M615.8 378.9L662.2 378.9L615.8 330.6Z" fill="#ffffff" stroke="#FFFFFF"></path><path d="M660.2 518.1L615.8 475.7L612.8 518.1Z" fill="#ffffff" stroke="#FFFFFF"></path><path d="M425.3 187.5L427.3 236.8L473.7 189.5Z" fill="#ffffff" stroke="#FFFFFF"></path><path d="M378.9 233.8L331.6 189.5L328.6 234.8Z" fill="#ffffff" stroke="#FFFFFF"></path><path d="M328.6 234.8L281.2 188.5L282.2 236.8Z" fill="#ffffff" stroke="#FFFFFF"></path><path d="M142.1 376.9L143.1 427.3L186.5 378.9Z" fill="#ffffff" stroke="#FFFFFF"></path><path d="M186.5 378.9L143.1 427.3L187.5 424.3Z" fill="#f1f1f1" stroke="#FFFFFF"></path><path d="M188.5 472.7L143.1 470.7L191.5 518.1Z" fill="#ffffff" stroke="#FFFFFF"></path><path d="M143.1 427.3L143.1 470.7L188.5 472.7Z" fill="#f8f8f8" stroke="#FFFFFF"></path><path d="M473.7 189.5L427.3 236.8L471.7 235.8Z" fill="#ffffff" stroke="#FFFFFF"></path><path d="M377.9 709.5L376.9 664.2L331.6 665.2Z" fill="#fcfcfc" stroke="#FFFFFF"></path><path d="M377.9 709.5L425.3 660.2L376.9 664.2Z" fill="#ffffff" stroke="#FFFFFF"></path><path d="M328.6 712.5L377.9 709.5L331.6 665.2Z" fill="#ffffff" stroke="#FFFFFF"></path><path d="M615.8 569.4L660.2 518.1L612.8 518.1Z" fill="#ffffff" stroke="#FFFFFF"></path><path d="M616.8 665.2L613.8 612.8L569.4 616.8Z" fill="#ffffff" stroke="#FFFFFF"></path><path d="M569.4 616.8L613.8 612.8L569.4 565.4Z" fill="#eeeeee" stroke="#FFFFFF"></path><path d="M615.8 569.4L664.2 570.4L660.2 518.1Z" fill="#ffffff" stroke="#FFFFFF"></path><path d="M660.2 425.3L662.2 378.9L615.8 378.9Z" fill="#fcfcfc" stroke="#FFFFFF"></path><path d="M710.5 424.3L662.2 378.9L660.2 425.3Z" fill="#ffffff" stroke="#FFFFFF"></path><path d="M518.1 188.5L473.7 189.5L471.7 235.8Z" fill="#ffffff" stroke="#FFFFFF"></path><path d="M281.2 188.5L331.6 189.5L284.2 144.1Z" fill="#f5f5f5" stroke="#FFFFFF"></path><path d="M378.9 188.5L331.6 189.5L378.9 233.8Z" fill="#ffffff" stroke="#FFFFFF"></path><path d="M660.2 284.2L615.8 283.2L615.8 330.6Z" fill="#f8f8f8" stroke="#FFFFFF"></path><path d="M615.8 330.6L615.8 283.2L567.4 332.6Z" fill="#ffffff" stroke="#FFFFFF"></path><path d="M523.1 236.8L518.1 188.5L471.7 235.8Z" fill="#ffffff" stroke="#FFFFFF"></path><path d="M616.8 234.8L566.4 233.8L565.4 281.2Z" fill="#ffffff" stroke="#FFFFFF"></path><path d="M282.2 236.8L236.8 236.8L281.2 282.2Z" fill="#fcfcfc" stroke="#FFFFFF"></path><path d="M234.8 285.2L187.5 285.2L190.5 331.6Z" fill="#f1f1f1" stroke="#FFFFFF"></path><path d="M190.5 331.6L142.1 376.9L186.5 378.9Z" fill="#eeeeee" stroke="#FFFFFF"></path><path d="M238.8 191.5L236.8 236.8L282.2 236.8Z" fill="#fcfcfc" stroke="#FFFFFF"></path><path d="M522.1 664.2L565.4 664.2L569.4 616.8Z" fill="#ffffff" stroke="#FFFFFF"></path><path d="M523.1 708.5L565.4 664.2L522.1 664.2Z" fill="#fcfcfc" stroke="#FFFFFF"></path><path d="M190.5 236.8L187.5 285.2L234.8 285.2Z" fill="#f5f5f5" stroke="#FFFFFF"></path><path d="M428.3 709.5L474.7 709.5L473.7 662.2Z" fill="#ffffff" stroke="#FFFFFF"></path><path d="M141.1 328.6L142.1 376.9L190.5 331.6Z" fill="#ffffff" stroke="#FFFFFF"></path><path d="M92.7 470.7L139.1 520.1L143.1 470.7Z" fill="#f8f8f8" stroke="#FFFFFF"></path><path d="M142.1 614.8L190.5 616.8L191.5 567.4Z" fill="#ffffff" stroke="#FFFFFF"></path><path d="M191.5 567.4L190.5 616.8L236.8 612.8Z" fill="#ffffff" stroke="#FFFFFF"></path><path d="M283.2 708.5L328.6 712.5L331.6 665.2Z" fill="#f1f1f1" stroke="#FFFFFF"></path><path d="M190.5 616.8L233.8 661.2L236.8 612.8Z" fill="#eeeeee" stroke="#FFFFFF"></path><path d="M92.7 470.7L143.1 470.7L143.1 427.3Z" fill="#ffffff" stroke="#FFFFFF"></path><path d="M143.1 470.7L139.1 520.1L191.5 518.1Z" fill="#ffffff" stroke="#FFFFFF"></path><path d="M283.2 708.5L331.6 665.2L281.2 661.2Z" fill="#eeeeee" stroke="#FFFFFF"></path><path d="M377.9 709.5L423.3 759.9L428.3 709.5Z" fill="#ffffff" stroke="#FFFFFF"></path><path d="M428.3 709.5L475.7 754.9L474.7 709.5Z" fill="#ffffff" stroke="#FFFFFF"></path><path d="M566.4 233.8L518.1 188.5L523.1 236.8Z" fill="#ffffff" stroke="#FFFFFF"></path><path d="M473.7 143.1L424.3 140.1L425.3 187.5Z" fill="#ffffff" stroke="#FFFFFF"></path><path d="M139.1 520.1L144.1 565.4L191.5 518.1Z" fill="#ffffff" stroke="#FFFFFF"></path><path d="M707.5 375.9L664.2 331.6L662.2 378.9Z" fill="#f5f5f5" stroke="#FFFFFF"></path><path d="M662.2 378.9L664.2 331.6L615.8 330.6Z" fill="#f5f5f5" stroke="#FFFFFF"></path><path d="M615.8 283.2L616.8 234.8L565.4 281.2Z" fill="#f1f1f1" stroke="#FFFFFF"></path><path d="M474.7 709.5L523.1 708.5L522.1 664.2Z" fill="#eeeeee" stroke="#FFFFFF"></path><path d="M238.8 711.5L283.2 708.5L281.2 661.2Z" fill="#fcfcfc" stroke="#FFFFFF"></path><path d="M329.6 144.1L331.6 189.5L378.9 188.5Z" fill="#ffffff" stroke="#FFFFFF"></path><path d="M331.6 189.5L281.2 188.5L328.6 234.8Z" fill="#f1f1f1" stroke="#FFFFFF"></path><path d="M236.8 236.8L190.5 236.8L234.8 285.2Z" fill="#ffffff" stroke="#FFFFFF"></path><path d="M616.8 665.2L569.4 616.8L565.4 664.2Z" fill="#ffffff" stroke="#FFFFFF"></path><path d="M663.2 617.8L664.2 570.4L613.8 612.8Z" fill="#f5f5f5" stroke="#FFFFFF"></path><path d="M613.8 612.8L664.2 570.4L615.8 569.4Z" fill="#f1f1f1" stroke="#FFFFFF"></path><path d="M660.2 518.1L710.5 471.7L661.2 471.7Z" fill="#eeeeee" stroke="#FFFFFF"></path><path d="M661.2 471.7L710.5 424.3L660.2 425.3Z" fill="#ffffff" stroke="#FFFFFF"></path><path d="M187.5 285.2L141.1 328.6L190.5 331.6Z" fill="#eeeeee" stroke="#FFFFFF"></path><path d="M91.7 425.3L92.7 470.7L143.1 427.3Z" fill="#f1f1f1" stroke="#FFFFFF"></path><path d="M141.1 284.2L141.1 328.6L187.5 285.2Z" fill="#f8f8f8" stroke="#FFFFFF"></path><path d="M238.8 191.5L190.5 236.8L236.8 236.8Z" fill="#ffffff" stroke="#FFFFFF"></path><path d="M190.5 616.8L190.5 661.2L233.8 661.2Z" fill="#ffffff" stroke="#FFFFFF"></path><path d="M233.8 661.2L238.8 711.5L281.2 661.2Z" fill="#f5f5f5" stroke="#FFFFFF"></path><path d="M142.1 614.8L190.5 661.2L190.5 616.8Z" fill="#ffffff" stroke="#FFFFFF"></path><path d="M660.2 284.2L616.8 234.8L615.8 283.2Z" fill="#ffffff" stroke="#FFFFFF"></path><path d="M566.4 233.8L567.4 186.5L518.1 188.5Z" fill="#ffffff" stroke="#FFFFFF"></path><path d="M567.4 709.5L616.8 665.2L565.4 664.2Z" fill="#eeeeee" stroke="#FFFFFF"></path><path d="M664.2 331.6L660.2 284.2L615.8 330.6Z" fill="#ffffff" stroke="#FFFFFF"></path><path d="M281.2 188.5L238.8 191.5L282.2 236.8Z" fill="#ffffff" stroke="#FFFFFF"></path><path d="M712.5 522.1L710.5 471.7L660.2 518.1Z" fill="#fcfcfc" stroke="#FFFFFF"></path><path d="M664.2 331.6L707.5 284.2L660.2 284.2Z" fill="#f1f1f1" stroke="#FFFFFF"></path><path d="M710.5 471.7L710.5 424.3L661.2 471.7Z" fill="#ffffff" stroke="#FFFFFF"></path><path d="M332.6 759.9L376.9 754.9L328.6 712.5Z" fill="#ffffff" stroke="#FFFFFF"></path><path d="M328.6 712.5L376.9 754.9L377.9 709.5Z" fill="#ffffff" stroke="#FFFFFF"></path><path d="M474.7 709.5L519.1 756.9L523.1 708.5Z" fill="#f8f8f8" stroke="#FFFFFF"></path><path d="M566.4 757.9L567.4 709.5L523.1 708.5Z" fill="#f5f5f5" stroke="#FFFFFF"></path><path d="M523.1 708.5L567.4 709.5L565.4 664.2Z" fill="#ffffff" stroke="#FFFFFF"></path><path d="M616.8 188.5L567.4 186.5L566.4 233.8Z" fill="#ffffff" stroke="#FFFFFF"></path><path d="M473.7 143.1L425.3 187.5L473.7 189.5Z" fill="#ffffff" stroke="#FFFFFF"></path><path d="M425.3 187.5L379.9 140.1L378.9 188.5Z" fill="#eeeeee" stroke="#FFFFFF"></path><path d="M473.7 143.1L473.7 189.5L518.1 188.5Z" fill="#f8f8f8" stroke="#FFFFFF"></path><path d="M281.2 188.5L284.2 144.1L238.8 191.5Z" fill="#ffffff" stroke="#FFFFFF"></path><path d="M424.3 140.1L379.9 140.1L425.3 187.5Z" fill="#ffffff" stroke="#FFFFFF"></path><path d="M142.1 235.8L141.1 284.2L187.5 285.2Z" fill="#eeeeee" stroke="#FFFFFF"></path><path d="M91.7 425.3L143.1 427.3L142.1 376.9Z" fill="#ffffff" stroke="#FFFFFF"></path><path d="M616.8 665.2L663.2 617.8L613.8 612.8Z" fill="#eeeeee" stroke="#FFFFFF"></path><path d="M664.2 570.4L712.5 522.1L660.2 518.1Z" fill="#ffffff" stroke="#FFFFFF"></path><path d="M96.7 566.4L142.1 614.8L144.1 565.4Z" fill="#ffffff" stroke="#FFFFFF"></path><path d="M144.1 565.4L142.1 614.8L191.5 567.4Z" fill="#ffffff" stroke="#FFFFFF"></path><path d="M191.5 710.5L238.8 711.5L233.8 661.2Z" fill="#ffffff" stroke="#FFFFFF"></path><path d="M281.2 756.9L332.6 759.9L328.6 712.5Z" fill="#ffffff" stroke="#FFFFFF"></path><path d="M191.5 710.5L233.8 661.2L190.5 661.2Z" fill="#f5f5f5" stroke="#FFFFFF"></path><path d="M91.7 425.3L142.1 376.9L92.7 376.9Z" fill="#f8f8f8" stroke="#FFFFFF"></path><path d="M139.1 520.1L96.7 566.4L144.1 565.4Z" fill="#fcfcfc" stroke="#FFFFFF"></path><path d="M710.5 424.3L707.5 375.9L662.2 378.9Z" fill="#f8f8f8" stroke="#FFFFFF"></path><path d="M376.9 754.9L423.3 759.9L377.9 709.5Z" fill="#f5f5f5" stroke="#FFFFFF"></path><path d="M92.7 376.9L142.1 376.9L93.7 330.6Z" fill="#ffffff" stroke="#FFFFFF"></path><path d="M379.9 140.1L329.6 144.1L378.9 188.5Z" fill="#ffffff" stroke="#FFFFFF"></path><path d="M521.1 139.1L473.7 143.1L518.1 188.5Z" fill="#fcfcfc" stroke="#FFFFFF"></path><path d="M423.3 759.9L475.7 754.9L428.3 709.5Z" fill="#f1f1f1" stroke="#FFFFFF"></path><path d="M92.7 470.7L95.7 520.1L139.1 520.1Z" fill="#ffffff" stroke="#FFFFFF"></path><path d="M712.5 566.4L712.5 522.1L664.2 570.4Z" fill="#ffffff" stroke="#FFFFFF"></path><path d="M710.5 471.7L758.9 472.7L710.5 424.3Z" fill="#ffffff" stroke="#FFFFFF"></path><path d="M93.7 330.6L142.1 376.9L141.1 328.6Z" fill="#f8f8f8" stroke="#FFFFFF"></path><path d="M281.2 756.9L328.6 712.5L283.2 708.5Z" fill="#f1f1f1" stroke="#FFFFFF"></path><path d="M376.9 807.3L427.3 802.3L423.3 759.9Z" fill="#eeeeee" stroke="#FFFFFF"></path><path d="M331.6 96.7L284.2 144.1L329.6 144.1Z" fill="#ffffff" stroke="#FFFFFF"></path><path d="M329.6 144.1L284.2 144.1L331.6 189.5Z" fill="#ffffff" stroke="#FFFFFF"></path><path d="M238.8 191.5L188.5 190.5L190.5 236.8Z" fill="#f5f5f5" stroke="#FFFFFF"></path><path d="M190.5 236.8L142.1 235.8L187.5 285.2Z" fill="#ffffff" stroke="#FFFFFF"></path><path d="M757.9 329.6L708.5 328.6L707.5 375.9Z" fill="#ffffff" stroke="#FFFFFF"></path><path d="M707.5 375.9L708.5 328.6L664.2 331.6Z" fill="#eeeeee" stroke="#FFFFFF"></path><path d="M663.2 189.5L616.8 188.5L616.8 234.8Z" fill="#ffffff" stroke="#FFFFFF"></path><path d="M95.7 520.1L96.7 566.4L139.1 520.1Z" fill="#ffffff" stroke="#FFFFFF"></path><path d="M95.7 617.8L96.7 566.4L48.4 616.8Z" fill="#fcfcfc" stroke="#FFFFFF"></path><path d="M475.7 754.9L519.1 756.9L474.7 709.5Z" fill="#eeeeee" stroke="#FFFFFF"></path><path d="M660.2 709.5L660.2 665.2L616.8 665.2Z" fill="#eeeeee" stroke="#FFFFFF"></path><path d="M475.7 802.3L519.1 756.9L475.7 754.9Z" fill="#ffffff" stroke="#FFFFFF"></path><path d="M567.4 143.1L521.1 139.1L567.4 186.5Z" fill="#ffffff" stroke="#FFFFFF"></path><path d="M567.4 186.5L521.1 139.1L518.1 188.5Z" fill="#ffffff" stroke="#FFFFFF"></path><path d="M427.3 92.7L376.9 96.7L424.3 140.1Z" fill="#ffffff" stroke="#FFFFFF"></path><path d="M424.3 140.1L376.9 96.7L379.9 140.1Z" fill="#ffffff" stroke="#FFFFFF"></path><path d="M709.5 616.8L712.5 566.4L664.2 570.4Z" fill="#ffffff" stroke="#FFFFFF"></path><path d="M95.7 283.2L141.1 328.6L141.1 284.2Z" fill="#fcfcfc" stroke="#FFFFFF"></path><path d="M95.7 283.2L93.7 330.6L141.1 328.6Z" fill="#fcfcfc" stroke="#FFFFFF"></path><path d="M233.8 756.9L281.2 756.9L238.8 711.5Z" fill="#ffffff" stroke="#FFFFFF"></path><path d="M238.8 711.5L281.2 756.9L283.2 708.5Z" fill="#eeeeee" stroke="#FFFFFF"></path><path d="M233.8 140.1L188.5 190.5L238.8 191.5Z" fill="#f5f5f5" stroke="#FFFFFF"></path><path d="M664.2 234.8L616.8 234.8L660.2 284.2Z" fill="#ffffff" stroke="#FFFFFF"></path><path d="M616.8 234.8L616.8 188.5L566.4 233.8Z" fill="#fcfcfc" stroke="#FFFFFF"></path><path d="M613.8 710.5L616.8 665.2L567.4 709.5Z" fill="#ffffff" stroke="#FFFFFF"></path><path d="M616.8 665.2L660.2 665.2L663.2 617.8Z" fill="#ffffff" stroke="#FFFFFF"></path><path d="M663.2 617.8L709.5 616.8L664.2 570.4Z" fill="#ffffff" stroke="#FFFFFF"></path><path d="M566.4 757.9L613.8 710.5L567.4 709.5Z" fill="#f1f1f1" stroke="#FFFFFF"></path><path d="M707.5 284.2L664.2 234.8L660.2 284.2Z" fill="#eeeeee" stroke="#FFFFFF"></path><path d="M188.5 190.5L142.1 235.8L190.5 236.8Z" fill="#ffffff" stroke="#FFFFFF"></path><path d="M140.1 663.2L190.5 661.2L142.1 614.8Z" fill="#f1f1f1" stroke="#FFFFFF"></path><path d="M142.1 710.5L191.5 710.5L190.5 661.2Z" fill="#eeeeee" stroke="#FFFFFF"></path><path d="M95.7 617.8L140.1 663.2L142.1 614.8Z" fill="#ffffff" stroke="#FFFFFF"></path><path d="M708.5 328.6L707.5 284.2L664.2 331.6Z" fill="#ffffff" stroke="#FFFFFF"></path><path d="M616.8 188.5L567.4 143.1L567.4 186.5Z" fill="#eeeeee" stroke="#FFFFFF"></path><path d="M709.5 664.2L709.5 616.8L663.2 617.8Z" fill="#ffffff" stroke="#FFFFFF"></path><path d="M142.1 235.8L95.7 283.2L141.1 284.2Z" fill="#ffffff" stroke="#FFFFFF"></path><path d="M521.1 802.3L566.4 757.9L519.1 756.9Z" fill="#ffffff" stroke="#FFFFFF"></path><path d="M519.1 756.9L566.4 757.9L523.1 708.5Z" fill="#ffffff" stroke="#FFFFFF"></path><path d="M613.8 710.5L660.2 709.5L616.8 665.2Z" fill="#ffffff" stroke="#FFFFFF"></path><path d="M660.2 665.2L709.5 664.2L663.2 617.8Z" fill="#f1f1f1" stroke="#FFFFFF"></path><path d="M44.4 565.4L96.7 566.4L95.7 520.1Z" fill="#ffffff" stroke="#FFFFFF"></path><path d="M96.7 566.4L95.7 617.8L142.1 614.8Z" fill="#ffffff" stroke="#FFFFFF"></path><path d="M49.4 474.7L95.7 520.1L92.7 470.7Z" fill="#f8f8f8" stroke="#FFFFFF"></path><path d="M281.2 92.7L233.8 140.1L284.2 144.1Z" fill="#f5f5f5" stroke="#FFFFFF"></path><path d="M284.2 144.1L233.8 140.1L238.8 191.5Z" fill="#eeeeee" stroke="#FFFFFF"></path><path d="M188.5 190.5L141.1 190.5L142.1 235.8Z" fill="#ffffff" stroke="#FFFFFF"></path><path d="M142.1 235.8L95.7 235.8L95.7 283.2Z" fill="#ffffff" stroke="#FFFFFF"></path><path d="M331.6 96.7L329.6 144.1L379.9 140.1Z" fill="#ffffff" stroke="#FFFFFF"></path><path d="M191.5 710.5L233.8 756.9L238.8 711.5Z" fill="#ffffff" stroke="#FFFFFF"></path><path d="M376.9 807.3L376.9 754.9L332.6 759.9Z" fill="#ffffff" stroke="#FFFFFF"></path><path d="M186.5 756.9L233.8 756.9L191.5 710.5Z" fill="#f1f1f1" stroke="#FFFFFF"></path><path d="M424.3 140.1L473.7 143.1L470.7 93.7Z" fill="#eeeeee" stroke="#FFFFFF"></path><path d="M427.3 92.7L424.3 140.1L470.7 93.7Z" fill="#ffffff" stroke="#FFFFFF"></path><path d="M376.9 807.3L423.3 759.9L376.9 754.9Z" fill="#f8f8f8" stroke="#FFFFFF"></path><path d="M423.3 759.9L475.7 802.3L475.7 754.9Z" fill="#ffffff" stroke="#FFFFFF"></path><path d="M376.9 807.3L332.6 759.9L328.6 806.3Z" fill="#ffffff" stroke="#FFFFFF"></path><path d="M44.4 425.3L49.4 474.7L91.7 425.3Z" fill="#ffffff" stroke="#FFFFFF"></path><path d="M91.7 425.3L49.4 474.7L92.7 470.7Z" fill="#ffffff" stroke="#FFFFFF"></path><path d="M44.4 425.3L91.7 425.3L48.4 380.9Z" fill="#f5f5f5" stroke="#FFFFFF"></path><path d="M91.7 425.3L92.7 376.9L48.4 380.9Z" fill="#f5f5f5" stroke="#FFFFFF"></path><path d="M754.9 518.1L710.5 471.7L712.5 522.1Z" fill="#ffffff" stroke="#FFFFFF"></path><path d="M754.9 518.1L758.9 472.7L710.5 471.7Z" fill="#fcfcfc" stroke="#FFFFFF"></path><path d="M710.5 424.3L759.9 380.9L707.5 375.9Z" fill="#f8f8f8" stroke="#FFFFFF"></path><path d="M708.5 328.6L759.9 286.2L707.5 284.2Z" fill="#ffffff" stroke="#FFFFFF"></path><path d="M754.9 518.1L712.5 522.1L755.9 565.4Z" fill="#fcfcfc" stroke="#FFFFFF"></path><path d="M758.9 472.7L758.9 423.3L710.5 424.3Z" fill="#f5f5f5" stroke="#FFFFFF"></path><path d="M470.7 93.7L473.7 143.1L521.1 139.1Z" fill="#fcfcfc" stroke="#FFFFFF"></path><path d="M755.9 565.4L712.5 522.1L712.5 566.4Z" fill="#f8f8f8" stroke="#FFFFFF"></path><path d="M332.6 49.4L331.6 96.7L376.9 96.7Z" fill="#ffffff" stroke="#FFFFFF"></path><path d="M376.9 96.7L331.6 96.7L379.9 140.1Z" fill="#eeeeee" stroke="#FFFFFF"></path><path d="M48.4 380.9L92.7 376.9L44.4 329.6Z" fill="#f5f5f5" stroke="#FFFFFF"></path><path d="M328.6 806.3L332.6 759.9L283.2 802.3Z" fill="#fcfcfc" stroke="#FFFFFF"></path><path d="M522.1 91.7L470.7 93.7L521.1 139.1Z" fill="#ffffff" stroke="#FFFFFF"></path><path d="M470.7 850.6L475.7 802.3L427.3 802.3Z" fill="#f5f5f5" stroke="#FFFFFF"></path><path d="M427.3 802.3L475.7 802.3L423.3 759.9Z" fill="#ffffff" stroke="#FFFFFF"></path><path d="M44.4 329.6L92.7 376.9L93.7 330.6Z" fill="#f5f5f5" stroke="#FFFFFF"></path><path d="M802.3 427.3L759.9 380.9L758.9 423.3Z" fill="#f5f5f5" stroke="#FFFFFF"></path><path d="M758.9 423.3L759.9 380.9L710.5 424.3Z" fill="#ffffff" stroke="#FFFFFF"></path><path d="M283.2 802.3L332.6 759.9L281.2 756.9Z" fill="#ffffff" stroke="#FFFFFF"></path><path d="M613.8 757.9L660.2 709.5L613.8 710.5Z" fill="#ffffff" stroke="#FFFFFF"></path><path d="M664.2 234.8L663.2 189.5L616.8 234.8Z" fill="#ffffff" stroke="#FFFFFF"></path><path d="M616.8 188.5L615.8 139.1L567.4 143.1Z" fill="#ffffff" stroke="#FFFFFF"></path><path d="M565.4 95.7L522.1 91.7L521.1 139.1Z" fill="#fcfcfc" stroke="#FFFFFF"></path><path d="M710.5 233.8L663.2 189.5L664.2 234.8Z" fill="#ffffff" stroke="#FFFFFF"></path><path d="M710.5 233.8L664.2 234.8L707.5 284.2Z" fill="#f1f1f1" stroke="#FFFFFF"></path><path d="M0 472.7L44.4 522.1L49.4 474.7Z" fill="#f1f1f1" stroke="#FFFFFF"></path><path d="M49.4 474.7L44.4 522.1L95.7 520.1Z" fill="#ffffff" stroke="#FFFFFF"></path><path d="M144.1 143.1L141.1 190.5L188.5 190.5Z" fill="#ffffff" stroke="#FFFFFF"></path><path d="M95.7 710.5L142.1 710.5L140.1 663.2Z" fill="#f5f5f5" stroke="#FFFFFF"></path><path d="M140.1 663.2L142.1 710.5L190.5 661.2Z" fill="#ffffff" stroke="#FFFFFF"></path><path d="M234.8 804.3L283.2 802.3L281.2 756.9Z" fill="#ffffff" stroke="#FFFFFF"></path><path d="M91.7 663.2L140.1 663.2L95.7 617.8Z" fill="#fcfcfc" stroke="#FFFFFF"></path><path d="M757.9 615.8L712.5 566.4L709.5 616.8Z" fill="#eeeeee" stroke="#FFFFFF"></path><path d="M757.9 615.8L755.9 565.4L712.5 566.4Z" fill="#ffffff" stroke="#FFFFFF"></path><path d="M805.3 474.7L802.3 427.3L758.9 472.7Z" fill="#eeeeee" stroke="#FFFFFF"></path><path d="M475.7 802.3L521.1 802.3L519.1 756.9Z" fill="#eeeeee" stroke="#FFFFFF"></path><path d="M566.4 757.9L613.8 757.9L613.8 710.5Z" fill="#ffffff" stroke="#FFFFFF"></path><path d="M566.4 807.3L521.1 802.3L520.1 854.6Z" fill="#ffffff" stroke="#FFFFFF"></path><path d="M759.9 380.9L757.9 329.6L707.5 375.9Z" fill="#ffffff" stroke="#FFFFFF"></path><path d="M234.8 804.3L281.2 756.9L233.8 756.9Z" fill="#f5f5f5" stroke="#FFFFFF"></path><path d="M141.1 190.5L95.7 235.8L142.1 235.8Z" fill="#ffffff" stroke="#FFFFFF"></path><path d="M47.4 285.2L44.4 329.6L93.7 330.6Z" fill="#f8f8f8" stroke="#FFFFFF"></path><path d="M612.8 804.3L613.8 757.9L566.4 757.9Z" fill="#eeeeee" stroke="#FFFFFF"></path><path d="M755.9 237.8L710.5 233.8L707.5 284.2Z" fill="#f5f5f5" stroke="#FFFFFF"></path><path d="M710.5 711.5L709.5 664.2L660.2 709.5Z" fill="#ffffff" stroke="#FFFFFF"></path><path d="M660.2 709.5L709.5 664.2L660.2 665.2Z" fill="#ffffff" stroke="#FFFFFF"></path><path d="M661.2 140.1L616.8 188.5L663.2 189.5Z" fill="#fcfcfc" stroke="#FFFFFF"></path><path d="M661.2 140.1L615.8 139.1L616.8 188.5Z" fill="#fcfcfc" stroke="#FFFFFF"></path><path d="M565.4 95.7L521.1 139.1L567.4 143.1Z" fill="#eeeeee" stroke="#FFFFFF"></path><path d="M470.7 93.7L428.3 47.4L427.3 92.7Z" fill="#ffffff" stroke="#FFFFFF"></path><path d="M331.6 96.7L281.2 92.7L284.2 144.1Z" fill="#ffffff" stroke="#FFFFFF"></path><path d="M233.8 140.1L186.5 139.1L188.5 190.5Z" fill="#f1f1f1" stroke="#FFFFFF"></path><path d="M332.6 49.4L281.2 92.7L331.6 96.7Z" fill="#ffffff" stroke="#FFFFFF"></path><path d="M375.9 45.4L376.9 96.7L427.3 92.7Z" fill="#f5f5f5" stroke="#FFFFFF"></path><path d="M142.1 710.5L186.5 756.9L191.5 710.5Z" fill="#ffffff" stroke="#FFFFFF"></path><path d="M191.5 92.7L186.5 139.1L233.8 140.1Z" fill="#f8f8f8" stroke="#FFFFFF"></path><path d="M141.1 190.5L91.7 189.5L95.7 235.8Z" fill="#ffffff" stroke="#FFFFFF"></path><path d="M44.4 522.1L44.4 565.4L95.7 520.1Z" fill="#eeeeee" stroke="#FFFFFF"></path><path d="M47.4 285.2L93.7 330.6L95.7 283.2Z" fill="#fcfcfc" stroke="#FFFFFF"></path><path d="M0 378.9L0 426.3L44.4 425.3Z" fill="#ffffff" stroke="#FFFFFF"></path><path d="M48.4 616.8L91.7 663.2L95.7 617.8Z" fill="#fcfcfc" stroke="#FFFFFF"></path><path d="M142.1 710.5L140.1 756.9L186.5 756.9Z" fill="#ffffff" stroke="#FFFFFF"></path><path d="M615.8 139.1L565.4 95.7L567.4 143.1Z" fill="#ffffff" stroke="#FFFFFF"></path><path d="M281.2 92.7L237.8 94.7L233.8 140.1Z" fill="#f5f5f5" stroke="#FFFFFF"></path><path d="M802.3 285.2L759.9 286.2L757.9 329.6Z" fill="#f1f1f1" stroke="#FFFFFF"></path><path d="M757.9 329.6L759.9 286.2L708.5 328.6Z" fill="#fcfcfc" stroke="#FFFFFF"></path><path d="M44.4 238.8L47.4 285.2L95.7 283.2Z" fill="#ffffff" stroke="#FFFFFF"></path><path d="M44.4 238.8L95.7 283.2L95.7 235.8Z" fill="#ffffff" stroke="#FFFFFF"></path><path d="M755.9 662.2L757.9 615.8L709.5 616.8Z" fill="#ffffff" stroke="#FFFFFF"></path><path d="M805.3 474.7L758.9 472.7L805.3 520.1Z" fill="#f1f1f1" stroke="#FFFFFF"></path><path d="M758.9 472.7L802.3 427.3L758.9 423.3Z" fill="#f8f8f8" stroke="#FFFFFF"></path><path d="M44.4 565.4L48.4 616.8L96.7 566.4Z" fill="#ffffff" stroke="#FFFFFF"></path><path d="M190.5 804.3L234.8 804.3L233.8 756.9Z" fill="#ffffff" stroke="#FFFFFF"></path><path d="M331.6 849.6L376.9 807.3L328.6 806.3Z" fill="#f1f1f1" stroke="#FFFFFF"></path><path d="M520.1 854.6L521.1 802.3L475.7 802.3Z" fill="#ffffff" stroke="#FFFFFF"></path><path d="M521.1 802.3L566.4 807.3L566.4 757.9Z" fill="#eeeeee" stroke="#FFFFFF"></path><path d="M665.2 757.9L710.5 711.5L660.2 709.5Z" fill="#ffffff" stroke="#FFFFFF"></path><path d="M758.9 472.7L754.9 518.1L805.3 520.1Z" fill="#ffffff" stroke="#FFFFFF"></path><path d="M759.9 380.9L806.3 375.9L757.9 329.6Z" fill="#f8f8f8" stroke="#FFFFFF"></path><path d="M142.1 96.7L144.1 143.1L186.5 139.1Z" fill="#ffffff" stroke="#FFFFFF"></path><path d="M186.5 139.1L144.1 143.1L188.5 190.5Z" fill="#f8f8f8" stroke="#FFFFFF"></path><path d="M709.5 186.5L661.2 140.1L663.2 189.5Z" fill="#ffffff" stroke="#FFFFFF"></path><path d="M615.8 139.1L613.8 92.7L565.4 95.7Z" fill="#eeeeee" stroke="#FFFFFF"></path><path d="M709.5 186.5L663.2 189.5L710.5 233.8Z" fill="#ffffff" stroke="#FFFFFF"></path><path d="M472.7 44.4L470.7 93.7L521.1 49.4Z" fill="#ffffff" stroke="#FFFFFF"></path><path d="M472.7 44.4L428.3 47.4L470.7 93.7Z" fill="#f8f8f8" stroke="#FFFFFF"></path><path d="M281.2 92.7L234.8 47.4L237.8 94.7Z" fill="#f5f5f5" stroke="#FFFFFF"></path><path d="M805.3 520.1L754.9 518.1L755.9 565.4Z" fill="#ffffff" stroke="#FFFFFF"></path><path d="M759.9 188.5L709.5 186.5L710.5 233.8Z" fill="#f1f1f1" stroke="#FFFFFF"></path><path d="M331.6 849.6L378.9 850.6L376.9 807.3Z" fill="#ffffff" stroke="#FFFFFF"></path><path d="M376.9 807.3L425.3 854.6L427.3 802.3Z" fill="#ffffff" stroke="#FFFFFF"></path><path d="M331.6 849.6L328.6 806.3L285.2 852.6Z" fill="#ffffff" stroke="#FFFFFF"></path><path d="M428.3 47.4L375.9 45.4L427.3 92.7Z" fill="#f1f1f1" stroke="#FFFFFF"></path><path d="M0 378.9L44.4 425.3L48.4 380.9Z" fill="#f1f1f1" stroke="#FFFFFF"></path><path d="M44.4 425.3L0 472.7L49.4 474.7Z" fill="#f5f5f5" stroke="#FFFFFF"></path><path d="M44.4 522.1L0 566.4L44.4 565.4Z" fill="#eeeeee" stroke="#FFFFFF"></path><path d="M44.4 565.4L0 615.8L48.4 616.8Z" fill="#f1f1f1" stroke="#FFFFFF"></path><path d="M0 378.9L48.4 380.9L44.4 329.6Z" fill="#ffffff" stroke="#FFFFFF"></path><path d="M665.2 757.9L660.2 709.5L613.8 757.9Z" fill="#ffffff" stroke="#FFFFFF"></path><path d="M709.5 664.2L755.9 662.2L709.5 616.8Z" fill="#eeeeee" stroke="#FFFFFF"></path><path d="M0 426.3L0 472.7L44.4 425.3Z" fill="#ffffff" stroke="#FFFFFF"></path><path d="M91.7 663.2L95.7 710.5L140.1 663.2Z" fill="#ffffff" stroke="#FFFFFF"></path><path d="M186.5 756.9L190.5 804.3L233.8 756.9Z" fill="#fcfcfc" stroke="#FFFFFF"></path><path d="M47.4 708.5L95.7 710.5L91.7 663.2Z" fill="#fcfcfc" stroke="#FFFFFF"></path><path d="M375.9 45.4L332.6 49.4L376.9 96.7Z" fill="#ffffff" stroke="#FFFFFF"></path><path d="M94.7 141.1L91.7 189.5L141.1 190.5Z" fill="#ffffff" stroke="#FFFFFF"></path><path d="M612.8 804.3L665.2 757.9L613.8 757.9Z" fill="#ffffff" stroke="#FFFFFF"></path><path d="M95.7 710.5L140.1 756.9L142.1 710.5Z" fill="#f1f1f1" stroke="#FFFFFF"></path><path d="M378.9 850.6L425.3 854.6L376.9 807.3Z" fill="#ffffff" stroke="#FFFFFF"></path><path d="M285.2 852.6L328.6 806.3L283.2 802.3Z" fill="#ffffff" stroke="#FFFFFF"></path><path d="M377.9 900L423.3 900L425.3 854.6Z" fill="#f5f5f5" stroke="#FFFFFF"></path><path d="M803.3 570.4L805.3 520.1L755.9 565.4Z" fill="#ffffff" stroke="#FFFFFF"></path><path d="M803.3 570.4L755.9 565.4L757.9 615.8Z" fill="#eeeeee" stroke="#FFFFFF"></path><path d="M425.3 854.6L470.7 850.6L427.3 802.3Z" fill="#ffffff" stroke="#FFFFFF"></path><path d="M850.6 380.9L806.3 375.9L802.3 427.3Z" fill="#f5f5f5" stroke="#FFFFFF"></path><path d="M802.3 427.3L806.3 375.9L759.9 380.9Z" fill="#f1f1f1" stroke="#FFFFFF"></path><path d="M759.9 286.2L755.9 237.8L707.5 284.2Z" fill="#ffffff" stroke="#FFFFFF"></path><path d="M849.6 471.7L802.3 427.3L805.3 474.7Z" fill="#f8f8f8" stroke="#FFFFFF"></path><path d="M0 330.6L0 378.9L44.4 329.6Z" fill="#ffffff" stroke="#FFFFFF"></path><path d="M0 330.6L44.4 329.6L0 282.2Z" fill="#ffffff" stroke="#FFFFFF"></path><path d="M521.1 49.4L470.7 93.7L522.1 91.7Z" fill="#ffffff" stroke="#FFFFFF"></path><path d="M428.3 47.4L428.3 0L375.9 45.4Z" fill="#f8f8f8" stroke="#FFFFFF"></path><path d="M521.1 49.4L522.1 91.7L565.4 95.7Z" fill="#ffffff" stroke="#FFFFFF"></path><path d="M0 472.7L0 520.1L44.4 522.1Z" fill="#fcfcfc" stroke="#FFFFFF"></path><path d="M802.3 237.8L755.9 237.8L759.9 286.2Z" fill="#f8f8f8" stroke="#FFFFFF"></path><path d="M757.9 707.5L755.9 662.2L709.5 664.2Z" fill="#f1f1f1" stroke="#FFFFFF"></path><path d="M664.2 92.7L615.8 139.1L661.2 140.1Z" fill="#ffffff" stroke="#FFFFFF"></path><path d="M664.2 92.7L613.8 92.7L615.8 139.1Z" fill="#f5f5f5" stroke="#FFFFFF"></path><path d="M567.4 849.6L612.8 804.3L566.4 807.3Z" fill="#fcfcfc" stroke="#FFFFFF"></path><path d="M566.4 807.3L612.8 804.3L566.4 757.9Z" fill="#ffffff" stroke="#FFFFFF"></path><path d="M0 662.2L49.4 662.2L48.4 616.8Z" fill="#eeeeee" stroke="#FFFFFF"></path><path d="M48.4 616.8L49.4 662.2L91.7 663.2Z" fill="#ffffff" stroke="#FFFFFF"></path><path d="M95.7 710.5L95.7 758.9L140.1 756.9Z" fill="#f5f5f5" stroke="#FFFFFF"></path><path d="M234.8 47.4L191.5 92.7L237.8 94.7Z" fill="#ffffff" stroke="#FFFFFF"></path><path d="M237.8 94.7L191.5 92.7L233.8 140.1Z" fill="#ffffff" stroke="#FFFFFF"></path><path d="M144.1 143.1L94.7 141.1L141.1 190.5Z" fill="#ffffff" stroke="#FFFFFF"></path><path d="M141.1 806.3L190.5 804.3L186.5 756.9Z" fill="#ffffff" stroke="#FFFFFF"></path><path d="M234.8 849.6L285.2 852.6L283.2 802.3Z" fill="#ffffff" stroke="#FFFFFF"></path><path d="M570.4 45.4L521.1 49.4L565.4 95.7Z" fill="#f5f5f5" stroke="#FFFFFF"></path><path d="M49.4 189.5L44.4 238.8L95.7 235.8Z" fill="#f1f1f1" stroke="#FFFFFF"></path><path d="M804.3 617.8L803.3 570.4L757.9 615.8Z" fill="#f5f5f5" stroke="#FFFFFF"></path><path d="M806.3 375.9L805.3 330.6L757.9 329.6Z" fill="#ffffff" stroke="#FFFFFF"></path><path d="M0 282.2L44.4 329.6L47.4 285.2Z" fill="#ffffff" stroke="#FFFFFF"></path><path d="M0 520.1L0 566.4L44.4 522.1Z" fill="#eeeeee" stroke="#FFFFFF"></path><path d="M332.6 49.4L284.2 44.4L281.2 92.7Z" fill="#eeeeee" stroke="#FFFFFF"></path><path d="M330.6 0L284.2 44.4L332.6 49.4Z" fill="#f5f5f5" stroke="#FFFFFF"></path><path d="M330.6 0L332.6 49.4L375.9 45.4Z" fill="#eeeeee" stroke="#FFFFFF"></path><path d="M234.8 849.6L283.2 802.3L234.8 804.3Z" fill="#ffffff" stroke="#FFFFFF"></path><path d="M377.9 900L425.3 854.6L378.9 850.6Z" fill="#fcfcfc" stroke="#FFFFFF"></path><path d="M470.7 850.6L520.1 854.6L475.7 802.3Z" fill="#ffffff" stroke="#FFFFFF"></path><path d="M473.7 900L520.1 854.6L470.7 850.6Z" fill="#ffffff" stroke="#FFFFFF"></path><path d="M805.3 330.6L802.3 285.2L757.9 329.6Z" fill="#ffffff" stroke="#FFFFFF"></path><path d="M759.9 188.5L711.5 143.1L709.5 186.5Z" fill="#f5f5f5" stroke="#FFFFFF"></path><path d="M759.9 188.5L710.5 233.8L755.9 237.8Z" fill="#ffffff" stroke="#FFFFFF"></path><path d="M709.5 186.5L711.5 143.1L661.2 140.1Z" fill="#ffffff" stroke="#FFFFFF"></path><path d="M520.1 854.6L567.4 849.6L566.4 807.3Z" fill="#f1f1f1" stroke="#FFFFFF"></path><path d="M709.5 802.3L707.5 758.9L665.2 757.9Z" fill="#f1f1f1" stroke="#FFFFFF"></path><path d="M665.2 757.9L707.5 758.9L710.5 711.5Z" fill="#ffffff" stroke="#FFFFFF"></path><path d="M710.5 711.5L757.9 707.5L709.5 664.2Z" fill="#f5f5f5" stroke="#FFFFFF"></path><path d="M803.3 661.2L804.3 617.8L757.9 615.8Z" fill="#ffffff" stroke="#FFFFFF"></path><path d="M665.2 806.3L665.2 757.9L612.8 804.3Z" fill="#eeeeee" stroke="#FFFFFF"></path><path d="M284.2 44.4L234.8 47.4L281.2 92.7Z" fill="#fcfcfc" stroke="#FFFFFF"></path><path d="M142.1 96.7L94.7 141.1L144.1 143.1Z" fill="#eeeeee" stroke="#FFFFFF"></path><path d="M803.3 661.2L757.9 615.8L755.9 662.2Z" fill="#f5f5f5" stroke="#FFFFFF"></path><path d="M851.6 522.1L849.6 471.7L805.3 520.1Z" fill="#fcfcfc" stroke="#FFFFFF"></path><path d="M186.5 854.6L234.8 849.6L190.5 804.3Z" fill="#f5f5f5" stroke="#FFFFFF"></path><path d="M190.5 804.3L234.8 849.6L234.8 804.3Z" fill="#ffffff" stroke="#FFFFFF"></path><path d="M142.1 96.7L186.5 139.1L191.5 92.7Z" fill="#ffffff" stroke="#FFFFFF"></path><path d="M91.7 189.5L49.4 189.5L95.7 235.8Z" fill="#fcfcfc" stroke="#FFFFFF"></path><path d="M616.8 49.4L570.4 45.4L613.8 92.7Z" fill="#ffffff" stroke="#FFFFFF"></path><path d="M613.8 92.7L570.4 45.4L565.4 95.7Z" fill="#eeeeee" stroke="#FFFFFF"></path><path d="M470.7 0L428.3 0L472.7 44.4Z" fill="#fcfcfc" stroke="#FFFFFF"></path><path d="M0 235.8L0 282.2L44.4 238.8Z" fill="#ffffff" stroke="#FFFFFF"></path><path d="M44.4 238.8L0 282.2L47.4 285.2Z" fill="#f1f1f1" stroke="#FFFFFF"></path><path d="M0 566.4L0 615.8L44.4 565.4Z" fill="#f1f1f1" stroke="#FFFFFF"></path><path d="M47.4 708.5L95.7 758.9L95.7 710.5Z" fill="#f1f1f1" stroke="#FFFFFF"></path><path d="M47.4 708.5L91.7 663.2L49.4 662.2Z" fill="#ffffff" stroke="#FFFFFF"></path><path d="M140.1 756.9L141.1 806.3L186.5 756.9Z" fill="#ffffff" stroke="#FFFFFF"></path><path d="M190.5 47.4L142.1 96.7L191.5 92.7Z" fill="#eeeeee" stroke="#FFFFFF"></path><path d="M47.4 142.1L49.4 189.5L91.7 189.5Z" fill="#ffffff" stroke="#FFFFFF"></path><path d="M759.9 755.9L757.9 707.5L710.5 711.5Z" fill="#ffffff" stroke="#FFFFFF"></path><path d="M709.5 95.7L664.2 92.7L661.2 140.1Z" fill="#ffffff" stroke="#FFFFFF"></path><path d="M802.3 237.8L759.9 188.5L755.9 237.8Z" fill="#ffffff" stroke="#FFFFFF"></path><path d="M711.5 143.1L709.5 95.7L661.2 140.1Z" fill="#ffffff" stroke="#FFFFFF"></path><path d="M0 662.2L47.4 708.5L49.4 662.2Z" fill="#f5f5f5" stroke="#FFFFFF"></path><path d="M614.8 851.6L665.2 806.3L612.8 804.3Z" fill="#ffffff" stroke="#FFFFFF"></path><path d="M707.5 758.9L759.9 755.9L710.5 711.5Z" fill="#ffffff" stroke="#FFFFFF"></path><path d="M91.7 802.3L141.1 806.3L95.7 758.9Z" fill="#f8f8f8" stroke="#FFFFFF"></path><path d="M95.7 758.9L141.1 806.3L140.1 756.9Z" fill="#ffffff" stroke="#FFFFFF"></path><path d="M851.6 522.1L805.3 520.1L850.6 565.4Z" fill="#eeeeee" stroke="#FFFFFF"></path><path d="M805.3 520.1L849.6 471.7L805.3 474.7Z" fill="#ffffff" stroke="#FFFFFF"></path><path d="M806.3 375.9L851.6 332.6L805.3 330.6Z" fill="#f5f5f5" stroke="#FFFFFF"></path><path d="M805.3 330.6L852.6 285.2L802.3 285.2Z" fill="#ffffff" stroke="#FFFFFF"></path><path d="M849.6 471.7L851.6 426.3L802.3 427.3Z" fill="#ffffff" stroke="#FFFFFF"></path><path d="M470.7 0L472.7 44.4L519.1 0Z" fill="#f1f1f1" stroke="#FFFFFF"></path><path d="M472.7 44.4L428.3 0L428.3 47.4Z" fill="#ffffff" stroke="#FFFFFF"></path><path d="M284.2 44.4L238.8 0L234.8 47.4Z" fill="#f8f8f8" stroke="#FFFFFF"></path><path d="M428.3 0L376.9 0L375.9 45.4Z" fill="#f8f8f8" stroke="#FFFFFF"></path><path d="M852.6 285.2L802.3 237.8L802.3 285.2Z" fill="#f1f1f1" stroke="#FFFFFF"></path><path d="M802.3 285.2L802.3 237.8L759.9 286.2Z" fill="#ffffff" stroke="#FFFFFF"></path><path d="M851.6 426.3L850.6 380.9L802.3 427.3Z" fill="#ffffff" stroke="#FFFFFF"></path><path d="M664.2 92.7L616.8 49.4L613.8 92.7Z" fill="#f1f1f1" stroke="#FFFFFF"></path><path d="M519.1 0L472.7 44.4L521.1 49.4Z" fill="#ffffff" stroke="#FFFFFF"></path><path d="M377.9 900L378.9 850.6L331.6 849.6Z" fill="#ffffff" stroke="#FFFFFF"></path><path d="M425.3 854.6L473.7 900L470.7 850.6Z" fill="#ffffff" stroke="#FFFFFF"></path><path d="M520.1 854.6L568.4 900L567.4 849.6Z" fill="#f5f5f5" stroke="#FFFFFF"></path><path d="M377.9 900L331.6 849.6L330.6 900Z" fill="#f1f1f1" stroke="#FFFFFF"></path><path d="M330.6 900L331.6 849.6L285.2 852.6Z" fill="#f5f5f5" stroke="#FFFFFF"></path><path d="M757.9 707.5L803.3 661.2L755.9 662.2Z" fill="#f5f5f5" stroke="#FFFFFF"></path><path d="M850.6 565.4L805.3 520.1L803.3 570.4Z" fill="#f8f8f8" stroke="#FFFFFF"></path><path d="M807.3 709.5L803.3 661.2L757.9 707.5Z" fill="#ffffff" stroke="#FFFFFF"></path><path d="M519.1 0L521.1 49.4L570.4 45.4Z" fill="#ffffff" stroke="#FFFFFF"></path><path d="M191.5 0L190.5 47.4L234.8 47.4Z" fill="#ffffff" stroke="#FFFFFF"></path><path d="M234.8 47.4L190.5 47.4L191.5 92.7Z" fill="#ffffff" stroke="#FFFFFF"></path><path d="M142.1 96.7L94.7 96.7L94.7 141.1Z" fill="#ffffff" stroke="#FFFFFF"></path><path d="M850.6 565.4L803.3 570.4L854.6 612.8Z" fill="#fcfcfc" stroke="#FFFFFF"></path><path d="M900 470.7L900 426.3L851.6 426.3Z" fill="#eeeeee" stroke="#FFFFFF"></path><path d="M376.9 0L330.6 0L375.9 45.4Z" fill="#ffffff" stroke="#FFFFFF"></path><path d="M568.4 900L614.8 851.6L567.4 849.6Z" fill="#fcfcfc" stroke="#FFFFFF"></path><path d="M567.4 849.6L614.8 851.6L612.8 804.3Z" fill="#ffffff" stroke="#FFFFFF"></path><path d="M0 189.5L0 235.8L44.4 238.8Z" fill="#f5f5f5" stroke="#FFFFFF"></path><path d="M0 189.5L44.4 238.8L49.4 189.5Z" fill="#ffffff" stroke="#FFFFFF"></path><path d="M0 615.8L0 662.2L48.4 616.8Z" fill="#ffffff" stroke="#FFFFFF"></path><path d="M44.4 759.9L91.7 802.3L95.7 758.9Z" fill="#ffffff" stroke="#FFFFFF"></path><path d="M423.3 900L473.7 900L425.3 854.6Z" fill="#ffffff" stroke="#FFFFFF"></path><path d="M282.2 900L330.6 900L285.2 852.6Z" fill="#ffffff" stroke="#FFFFFF"></path><path d="M282.2 900L285.2 852.6L237.8 900Z" fill="#ffffff" stroke="#FFFFFF"></path><path d="M140.1 852.6L186.5 854.6L141.1 806.3Z" fill="#ffffff" stroke="#FFFFFF"></path><path d="M141.1 806.3L186.5 854.6L190.5 804.3Z" fill="#f1f1f1" stroke="#FFFFFF"></path><path d="M854.6 612.8L803.3 570.4L804.3 617.8Z" fill="#ffffff" stroke="#FFFFFF"></path><path d="M850.6 380.9L851.6 332.6L806.3 375.9Z" fill="#f8f8f8" stroke="#FFFFFF"></path><path d="M900 377.9L851.6 332.6L850.6 380.9Z" fill="#ffffff" stroke="#FFFFFF"></path><path d="M569.4 0L519.1 0L570.4 45.4Z" fill="#fcfcfc" stroke="#FFFFFF"></path><path d="M330.6 0L281.2 0L284.2 44.4Z" fill="#ffffff" stroke="#FFFFFF"></path><path d="M473.7 900L520.1 900L520.1 854.6Z" fill="#eeeeee" stroke="#FFFFFF"></path><path d="M754.9 96.7L709.5 95.7L711.5 143.1Z" fill="#ffffff" stroke="#FFFFFF"></path><path d="M664.2 92.7L661.2 48.4L616.8 49.4Z" fill="#ffffff" stroke="#FFFFFF"></path><path d="M612.8 0L569.4 0L570.4 45.4Z" fill="#f5f5f5" stroke="#FFFFFF"></path><path d="M759.9 139.1L711.5 143.1L759.9 188.5Z" fill="#ffffff" stroke="#FFFFFF"></path><path d="M237.8 900L285.2 852.6L234.8 849.6Z" fill="#ffffff" stroke="#FFFFFF"></path><path d="M140.1 46.4L94.7 96.7L142.1 96.7Z" fill="#ffffff" stroke="#FFFFFF"></path><path d="M94.7 141.1L47.4 142.1L91.7 189.5Z" fill="#ffffff" stroke="#FFFFFF"></path><path d="M140.1 46.4L142.1 96.7L190.5 47.4Z" fill="#ffffff" stroke="#FFFFFF"></path><path d="M708.5 849.6L709.5 802.3L665.2 806.3Z" fill="#f5f5f5" stroke="#FFFFFF"></path><path d="M665.2 806.3L709.5 802.3L665.2 757.9Z" fill="#fcfcfc" stroke="#FFFFFF"></path><path d="M94.7 96.7L47.4 142.1L94.7 141.1Z" fill="#f8f8f8" stroke="#FFFFFF"></path><path d="M709.5 802.3L759.9 755.9L707.5 758.9Z" fill="#ffffff" stroke="#FFFFFF"></path><path d="M853.6 665.2L854.6 612.8L804.3 617.8Z" fill="#f1f1f1" stroke="#FFFFFF"></path><path d="M802.3 143.1L759.9 139.1L759.9 188.5Z" fill="#f1f1f1" stroke="#FFFFFF"></path><path d="M805.3 186.5L759.9 188.5L802.3 237.8Z" fill="#ffffff" stroke="#FFFFFF"></path><path d="M44.4 759.9L95.7 758.9L47.4 708.5Z" fill="#eeeeee" stroke="#FFFFFF"></path><path d="M710.5 49.4L664.2 92.7L709.5 95.7Z" fill="#ffffff" stroke="#FFFFFF"></path><path d="M710.5 49.4L661.2 48.4L664.2 92.7Z" fill="#ffffff" stroke="#FFFFFF"></path><path d="M0 755.9L44.4 759.9L47.4 708.5Z" fill="#ffffff" stroke="#FFFFFF"></path><path d="M281.2 0L238.8 0L284.2 44.4Z" fill="#eeeeee" stroke="#FFFFFF"></path><path d="M900 331.6L852.6 285.2L851.6 332.6Z" fill="#f5f5f5" stroke="#FFFFFF"></path><path d="M851.6 332.6L852.6 285.2L805.3 330.6Z" fill="#ffffff" stroke="#FFFFFF"></path><path d="M900 426.3L850.6 380.9L851.6 426.3Z" fill="#fcfcfc" stroke="#FFFFFF"></path><path d="M612.8 0L570.4 45.4L616.8 49.4Z" fill="#ffffff" stroke="#FFFFFF"></path><path d="M854.6 237.8L805.3 186.5L802.3 237.8Z" fill="#f1f1f1" stroke="#FFFFFF"></path><path d="M47.4 142.1L0 189.5L49.4 189.5Z" fill="#f8f8f8" stroke="#FFFFFF"></path><path d="M614.8 900L662.2 852.6L614.8 851.6Z" fill="#f1f1f1" stroke="#FFFFFF"></path><path d="M614.8 851.6L662.2 852.6L665.2 806.3Z" fill="#ffffff" stroke="#FFFFFF"></path><path d="M709.5 802.3L758.9 805.3L759.9 755.9Z" fill="#f8f8f8" stroke="#FFFFFF"></path><path d="M853.6 665.2L804.3 617.8L803.3 661.2Z" fill="#eeeeee" stroke="#FFFFFF"></path><path d="M900 470.7L849.6 471.7L851.6 522.1Z" fill="#f5f5f5" stroke="#FFFFFF"></path><path d="M900 470.7L851.6 426.3L849.6 471.7Z" fill="#f1f1f1" stroke="#FFFFFF"></path><path d="M0 662.2L0 708.5L47.4 708.5Z" fill="#ffffff" stroke="#FFFFFF"></path><path d="M144.1 0L140.1 46.4L190.5 47.4Z" fill="#ffffff" stroke="#FFFFFF"></path><path d="M94.7 96.7L45.4 92.7L47.4 142.1Z" fill="#ffffff" stroke="#FFFFFF"></path><path d="M47.4 142.1L0 140.1L0 189.5Z" fill="#ffffff" stroke="#FFFFFF"></path><path d="M759.9 755.9L807.3 709.5L757.9 707.5Z" fill="#ffffff" stroke="#FFFFFF"></path><path d="M853.6 665.2L807.3 709.5L849.6 710.5Z" fill="#ffffff" stroke="#FFFFFF"></path><path d="M520.1 900L568.4 900L520.1 854.6Z" fill="#f5f5f5" stroke="#FFFFFF"></path><path d="M187.5 900L237.8 900L186.5 854.6Z" fill="#f1f1f1" stroke="#FFFFFF"></path><path d="M186.5 854.6L237.8 900L234.8 849.6Z" fill="#ffffff" stroke="#FFFFFF"></path><path d="M93.7 850.6L140.1 852.6L141.1 806.3Z" fill="#ffffff" stroke="#FFFFFF"></path><path d="M93.7 850.6L141.1 806.3L91.7 802.3Z" fill="#ffffff" stroke="#FFFFFF"></path><path d="M663.2 0L616.8 49.4L661.2 48.4Z" fill="#ffffff" stroke="#FFFFFF"></path><path d="M663.2 0L612.8 0L616.8 49.4Z" fill="#fcfcfc" stroke="#FFFFFF"></path><path d="M238.8 0L191.5 0L234.8 47.4Z" fill="#ffffff" stroke="#FFFFFF"></path><path d="M900 470.7L851.6 522.1L900 523.1Z" fill="#ffffff" stroke="#FFFFFF"></path><path d="M900 523.1L851.6 522.1L850.6 565.4Z" fill="#ffffff" stroke="#FFFFFF"></path><path d="M803.3 91.7L754.9 96.7L759.9 139.1Z" fill="#f5f5f5" stroke="#FFFFFF"></path><path d="M759.9 139.1L754.9 96.7L711.5 143.1Z" fill="#f8f8f8" stroke="#FFFFFF"></path><path d="M852.6 285.2L854.6 237.8L802.3 237.8Z" fill="#ffffff" stroke="#FFFFFF"></path><path d="M805.3 186.5L802.3 143.1L759.9 188.5Z" fill="#fcfcfc" stroke="#FFFFFF"></path><path d="M900 286.2L854.6 237.8L852.6 285.2Z" fill="#f8f8f8" stroke="#FFFFFF"></path><path d="M568.4 900L614.8 900L614.8 851.6Z" fill="#ffffff" stroke="#FFFFFF"></path><path d="M804.3 755.9L807.3 709.5L759.9 755.9Z" fill="#ffffff" stroke="#FFFFFF"></path><path d="M807.3 709.5L853.6 665.2L803.3 661.2Z" fill="#ffffff" stroke="#FFFFFF"></path><path d="M900 570.4L900 523.1L850.6 565.4Z" fill="#eeeeee" stroke="#FFFFFF"></path><path d="M758.9 805.3L709.5 802.3L708.5 849.6Z" fill="#ffffff" stroke="#FFFFFF"></path><path d="M140.1 900L186.5 854.6L140.1 852.6Z" fill="#f5f5f5" stroke="#FFFFFF"></path><path d="M140.1 900L187.5 900L186.5 854.6Z" fill="#fcfcfc" stroke="#FFFFFF"></path><path d="M900 426.3L900 377.9L850.6 380.9Z" fill="#ffffff" stroke="#FFFFFF"></path><path d="M851.6 186.5L802.3 143.1L805.3 186.5Z" fill="#ffffff" stroke="#FFFFFF"></path><path d="M900 570.4L850.6 565.4L854.6 612.8Z" fill="#fcfcfc" stroke="#FFFFFF"></path><path d="M755.9 45.4L710.5 49.4L754.9 96.7Z" fill="#fcfcfc" stroke="#FFFFFF"></path><path d="M754.9 96.7L710.5 49.4L709.5 95.7Z" fill="#eeeeee" stroke="#FFFFFF"></path><path d="M708.5 849.6L665.2 806.3L662.2 852.6Z" fill="#f5f5f5" stroke="#FFFFFF"></path><path d="M0 806.3L46.4 803.3L44.4 759.9Z" fill="#ffffff" stroke="#FFFFFF"></path><path d="M44.4 759.9L46.4 803.3L91.7 802.3Z" fill="#f8f8f8" stroke="#FFFFFF"></path><path d="M707.5 900L708.5 849.6L662.2 852.6Z" fill="#f5f5f5" stroke="#FFFFFF"></path><path d="M92.7 45.4L94.7 96.7L140.1 46.4Z" fill="#fcfcfc" stroke="#FFFFFF"></path><path d="M92.7 45.4L45.4 92.7L94.7 96.7Z" fill="#f1f1f1" stroke="#FFFFFF"></path><path d="M807.3 802.3L804.3 755.9L759.9 755.9Z" fill="#f1f1f1" stroke="#FFFFFF"></path><path d="M0 708.5L0 755.9L47.4 708.5Z" fill="#f5f5f5" stroke="#FFFFFF"></path><path d="M45.4 92.7L0 140.1L47.4 142.1Z" fill="#ffffff" stroke="#FFFFFF"></path><path d="M46.4 803.3L93.7 850.6L91.7 802.3Z" fill="#ffffff" stroke="#FFFFFF"></path><path d="M96.7 0L92.7 45.4L140.1 46.4Z" fill="#ffffff" stroke="#FFFFFF"></path><path d="M900 377.9L900 331.6L851.6 332.6Z" fill="#ffffff" stroke="#FFFFFF"></path><path d="M900 614.8L900 570.4L854.6 612.8Z" fill="#eeeeee" stroke="#FFFFFF"></path><path d="M804.3 755.9L849.6 710.5L807.3 709.5Z" fill="#ffffff" stroke="#FFFFFF"></path><path d="M853.6 665.2L900 614.8L854.6 612.8Z" fill="#eeeeee" stroke="#FFFFFF"></path><path d="M850.6 757.9L849.6 710.5L804.3 755.9Z" fill="#ffffff" stroke="#FFFFFF"></path><path d="M710.5 49.4L663.2 0L661.2 48.4Z" fill="#ffffff" stroke="#FFFFFF"></path><path d="M709.5 0L663.2 0L710.5 49.4Z" fill="#f1f1f1" stroke="#FFFFFF"></path><path d="M191.5 0L144.1 0L190.5 47.4Z" fill="#ffffff" stroke="#FFFFFF"></path><path d="M900 190.5L851.6 186.5L854.6 237.8Z" fill="#eeeeee" stroke="#FFFFFF"></path><path d="M854.6 237.8L851.6 186.5L805.3 186.5Z" fill="#f1f1f1" stroke="#FFFFFF"></path><path d="M803.3 91.7L755.9 45.4L754.9 96.7Z" fill="#ffffff" stroke="#FFFFFF"></path><path d="M614.8 900L665.2 900L662.2 852.6Z" fill="#ffffff" stroke="#FFFFFF"></path><path d="M708.5 849.6L757.9 849.6L758.9 805.3Z" fill="#ffffff" stroke="#FFFFFF"></path><path d="M900 331.6L900 286.2L852.6 285.2Z" fill="#f5f5f5" stroke="#FFFFFF"></path><path d="M96.7 900L140.1 900L140.1 852.6Z" fill="#f5f5f5" stroke="#FFFFFF"></path><path d="M96.7 900L140.1 852.6L93.7 850.6Z" fill="#ffffff" stroke="#FFFFFF"></path><path d="M46.4 852.6L93.7 850.6L46.4 803.3Z" fill="#eeeeee" stroke="#FFFFFF"></path><path d="M900 664.2L900 614.8L853.6 665.2Z" fill="#ffffff" stroke="#FFFFFF"></path><path d="M803.3 91.7L759.9 139.1L802.3 143.1Z" fill="#ffffff" stroke="#FFFFFF"></path><path d="M756.9 900L757.9 849.6L708.5 849.6Z" fill="#f1f1f1" stroke="#FFFFFF"></path><path d="M758.9 805.3L807.3 802.3L759.9 755.9Z" fill="#fcfcfc" stroke="#FFFFFF"></path><path d="M48.4 0L46.4 49.4L92.7 45.4Z" fill="#ffffff" stroke="#FFFFFF"></path><path d="M92.7 45.4L46.4 49.4L45.4 92.7Z" fill="#f5f5f5" stroke="#FFFFFF"></path><path d="M45.4 92.7L0 95.7L0 140.1Z" fill="#f5f5f5" stroke="#FFFFFF"></path><path d="M853.6 93.7L803.3 91.7L802.3 143.1Z" fill="#f5f5f5" stroke="#FFFFFF"></path><path d="M0 47.4L0 95.7L45.4 92.7Z" fill="#ffffff" stroke="#FFFFFF"></path><path d="M802.3 850.6L807.3 802.3L758.9 805.3Z" fill="#f5f5f5" stroke="#FFFFFF"></path><path d="M900 710.5L900 664.2L853.6 665.2Z" fill="#ffffff" stroke="#FFFFFF"></path><path d="M0 755.9L0 806.3L44.4 759.9Z" fill="#eeeeee" stroke="#FFFFFF"></path><path d="M0 806.3L46.4 852.6L46.4 803.3Z" fill="#fcfcfc" stroke="#FFFFFF"></path><path d="M900 286.2L900 234.8L854.6 237.8Z" fill="#f1f1f1" stroke="#FFFFFF"></path><path d="M851.6 186.5L854.6 142.1L802.3 143.1Z" fill="#ffffff" stroke="#FFFFFF"></path><path d="M900 710.5L853.6 665.2L849.6 710.5Z" fill="#ffffff" stroke="#FFFFFF"></path><path d="M755.9 45.4L709.5 0L710.5 49.4Z" fill="#ffffff" stroke="#FFFFFF"></path><path d="M144.1 0L96.7 0L140.1 46.4Z" fill="#fcfcfc" stroke="#FFFFFF"></path><path d="M807.3 802.3L850.6 757.9L804.3 755.9Z" fill="#ffffff" stroke="#FFFFFF"></path><path d="M757.9 849.6L802.3 850.6L758.9 805.3Z" fill="#fcfcfc" stroke="#FFFFFF"></path><path d="M665.2 900L707.5 900L662.2 852.6Z" fill="#eeeeee" stroke="#FFFFFF"></path><path d="M900 190.5L854.6 142.1L851.6 186.5Z" fill="#eeeeee" stroke="#FFFFFF"></path><path d="M46.4 852.6L96.7 900L93.7 850.6Z" fill="#ffffff" stroke="#FFFFFF"></path><path d="M900 234.8L900 190.5L854.6 237.8Z" fill="#ffffff" stroke="#FFFFFF"></path><path d="M850.6 757.9L900 710.5L849.6 710.5Z" fill="#ffffff" stroke="#FFFFFF"></path><path d="M900 758.9L900 710.5L850.6 757.9Z" fill="#f8f8f8" stroke="#FFFFFF"></path><path d="M756.9 900L802.3 850.6L757.9 849.6Z" fill="#fcfcfc" stroke="#FFFFFF"></path><path d="M807.3 802.3L849.6 803.3L850.6 757.9Z" fill="#ffffff" stroke="#FFFFFF"></path><path d="M853.6 93.7L802.3 143.1L854.6 142.1Z" fill="#ffffff" stroke="#FFFFFF"></path><path d="M853.6 93.7L806.3 49.4L803.3 91.7Z" fill="#ffffff" stroke="#FFFFFF"></path><path d="M803.3 91.7L806.3 49.4L755.9 45.4Z" fill="#f8f8f8" stroke="#FFFFFF"></path><path d="M755.9 45.4L756.9 0L709.5 0Z" fill="#ffffff" stroke="#FFFFFF"></path><path d="M48.4 0L0 47.4L46.4 49.4Z" fill="#f5f5f5" stroke="#FFFFFF"></path><path d="M46.4 49.4L0 47.4L45.4 92.7Z" fill="#ffffff" stroke="#FFFFFF"></path><path d="M802.3 850.6L849.6 803.3L807.3 802.3Z" fill="#f8f8f8" stroke="#FFFFFF"></path><path d="M803.3 0L756.9 0L755.9 45.4Z" fill="#fcfcfc" stroke="#FFFFFF"></path><path d="M0 806.3L0 852.6L46.4 852.6Z" fill="#ffffff" stroke="#FFFFFF"></path><path d="M46.4 852.6L44.4 900L96.7 900Z" fill="#eeeeee" stroke="#FFFFFF"></path><path d="M96.7 0L48.4 0L92.7 45.4Z" fill="#ffffff" stroke="#FFFFFF"></path><path d="M900 95.7L853.6 93.7L854.6 142.1Z" fill="#ffffff" stroke="#FFFFFF"></path><path d="M806.3 49.4L803.3 0L755.9 45.4Z" fill="#f1f1f1" stroke="#FFFFFF"></path><path d="M707.5 900L756.9 900L708.5 849.6Z" fill="#ffffff" stroke="#FFFFFF"></path><path d="M900 802.3L850.6 757.9L849.6 803.3Z" fill="#eeeeee" stroke="#FFFFFF"></path><path d="M0 852.6L44.4 900L46.4 852.6Z" fill="#ffffff" stroke="#FFFFFF"></path><path d="M900 190.5L900 141.1L854.6 142.1Z" fill="#ffffff" stroke="#FFFFFF"></path><path d="M900 802.3L900 758.9L850.6 757.9Z" fill="#ffffff" stroke="#FFFFFF"></path><path d="M852.6 854.6L849.6 803.3L802.3 850.6Z" fill="#ffffff" stroke="#FFFFFF"></path><path d="M852.6 46.4L806.3 49.4L853.6 93.7Z" fill="#ffffff" stroke="#FFFFFF"></path><path d="M851.6 0L803.3 0L806.3 49.4Z" fill="#ffffff" stroke="#FFFFFF"></path><path d="M900 48.4L852.6 46.4L853.6 93.7Z" fill="#f1f1f1" stroke="#FFFFFF"></path><path d="M48.4 0L0 0L0 47.4Z" fill="#ffffff" stroke="#FFFFFF"></path><path d="M756.9 900L804.3 900L802.3 850.6Z" fill="#fcfcfc" stroke="#FFFFFF"></path><path d="M804.3 900L852.6 854.6L802.3 850.6Z" fill="#ffffff" stroke="#FFFFFF"></path><path d="M0 852.6L0 900L44.4 900Z" fill="#f5f5f5" stroke="#FFFFFF"></path><path d="M900 141.1L900 95.7L854.6 142.1Z" fill="#ffffff" stroke="#FFFFFF"></path><path d="M900 849.6L900 802.3L849.6 803.3Z" fill="#ffffff" stroke="#FFFFFF"></path><path d="M900 0L851.6 0L852.6 46.4Z" fill="#f8f8f8" stroke="#FFFFFF"></path><path d="M852.6 46.4L851.6 0L806.3 49.4Z" fill="#ffffff" stroke="#FFFFFF"></path><path d="M900 95.7L900 48.4L853.6 93.7Z" fill="#ffffff" stroke="#FFFFFF"></path><path d="M804.3 900L853.6 900L852.6 854.6Z" fill="#fcfcfc" stroke="#FFFFFF"></path><path d="M852.6 854.6L900 849.6L849.6 803.3Z" fill="#ffffff" stroke="#FFFFFF"></path><path d="M900 900L900 849.6L852.6 854.6Z" fill="#ffffff" stroke="#FFFFFF"></path><path d="M900 48.4L900 0L852.6 46.4Z" fill="#fcfcfc" stroke="#FFFFFF"></path><path d="M853.6 900L900 900L852.6 854.6Z" fill="#eeeeee" stroke="#FFFFFF"></path></g></svg>