<svg id="visual" viewBox="0 0 600 900" width="600" height="900" xmlns="http://www.w3.org/2000/svg" xmlns:xlink="http://www.w3.org/1999/xlink" version="1.1"><g stroke-width="1" stroke-linejoin="bevel"><path d="M312.3 438.7L294.7 353.1L238.7 408.7Z" fill="#bebebe" stroke="#bebebe"></path><path d="M174 386.7L196.7 416.4L238.7 408.7Z" fill="#727272" stroke="#727272"></path><path d="M238.7 408.7L231 512.3L312.3 438.7Z" fill="#cecece" stroke="#cecece"></path><path d="M312.3 438.7L375.3 384.4L294.7 353.1Z" fill="#646464" stroke="#646464"></path><path d="M196.7 416.4L185.7 436.3L238.7 408.7Z" fill="#bebebe" stroke="#bebebe"></path><path d="M294.7 353.1L174 386.7L238.7 408.7Z" fill="#eeeeee" stroke="#eeeeee"></path><path d="M196.7 416.4L174 386.7L185.7 436.3Z" fill="#dedede" stroke="#dedede"></path><path d="M185.7 436.3L231 512.3L238.7 408.7Z" fill="#909090" stroke="#909090"></path><path d="M312.3 438.7L425 483.6L375.3 384.4Z" fill="#eeeeee" stroke="#eeeeee"></path><path d="M375.3 384.4L385.7 307.4L294.7 353.1Z" fill="#9f9f9f" stroke="#9f9f9f"></path><path d="M281.3 541L330.7 528L312.3 438.7Z" fill="#bebebe" stroke="#bebebe"></path><path d="M375.3 384.4L423 383L403 335.4Z" fill="#aeaeae" stroke="#aeaeae"></path><path d="M231 512.3L264.3 534.3L312.3 438.7Z" fill="#727272" stroke="#727272"></path><path d="M403 335.4L385.7 307.4L375.3 384.4Z" fill="#dedede" stroke="#dedede"></path><path d="M294.7 353.1L257.3 256.1L174 386.7Z" fill="#9f9f9f" stroke="#9f9f9f"></path><path d="M138 408L159.7 456.7L185.7 436.3Z" fill="#aeaeae" stroke="#aeaeae"></path><path d="M185.7 436.3L159.7 456.7L231 512.3Z" fill="#ffffff" stroke="#ffffff"></path><path d="M425 483.6L423 383L375.3 384.4Z" fill="#727272" stroke="#727272"></path><path d="M468 388.7L402 322.1L403 335.4Z" fill="#cecece" stroke="#cecece"></path><path d="M403 335.4L402 322.1L385.7 307.4Z" fill="#646464" stroke="#646464"></path><path d="M264.3 534.3L281.3 541L312.3 438.7Z" fill="#aeaeae" stroke="#aeaeae"></path><path d="M380.3 259.9L257.3 256.1L294.7 353.1Z" fill="#cecece" stroke="#cecece"></path><path d="M119.3 367.4L138 408L174 386.7Z" fill="#eeeeee" stroke="#eeeeee"></path><path d="M174 386.7L138 408L185.7 436.3Z" fill="#bebebe" stroke="#bebebe"></path><path d="M330.7 528L425 483.6L312.3 438.7Z" fill="#cecece" stroke="#cecece"></path><path d="M462.7 439.3L452.3 401L423 383Z" fill="#eeeeee" stroke="#eeeeee"></path><path d="M423 383L468 388.7L403 335.4Z" fill="#dedede" stroke="#dedede"></path><path d="M402 322.1L402 279.9L385.7 307.4Z" fill="#dedede" stroke="#dedede"></path><path d="M385.7 307.4L380.3 259.9L294.7 353.1Z" fill="#dedede" stroke="#dedede"></path><path d="M486.7 256.1L402 279.9L402 322.1Z" fill="#eeeeee" stroke="#eeeeee"></path><path d="M154 248.9L119.3 367.4L174 386.7Z" fill="#bebebe" stroke="#bebebe"></path><path d="M137 550.9L140.7 548.3L159.7 456.7Z" fill="#aeaeae" stroke="#aeaeae"></path><path d="M402 279.9L380.3 259.9L385.7 307.4Z" fill="#818181" stroke="#818181"></path><path d="M425 483.6L462.7 439.3L423 383Z" fill="#9f9f9f" stroke="#9f9f9f"></path><path d="M462.7 439.3L468 388.7L452.3 401Z" fill="#cecece" stroke="#cecece"></path><path d="M452.3 401L468 388.7L423 383Z" fill="#909090" stroke="#909090"></path><path d="M402.7 565.6L402 559.3L330.7 528Z" fill="#cecece" stroke="#cecece"></path><path d="M330.7 528L402 559.3L425 483.6Z" fill="#cecece" stroke="#cecece"></path><path d="M425 483.6L482.7 477L462.7 439.3Z" fill="#eeeeee" stroke="#eeeeee"></path><path d="M158 189.1L154 248.9L257.3 256.1Z" fill="#ffffff" stroke="#ffffff"></path><path d="M257.3 256.1L154 248.9L174 386.7Z" fill="#9f9f9f" stroke="#9f9f9f"></path><path d="M299.3 658.1L402.7 565.6L330.7 528Z" fill="#bebebe" stroke="#bebebe"></path><path d="M402 559.3L482.7 477L425 483.6Z" fill="#ffffff" stroke="#ffffff"></path><path d="M45.3 421L159.7 456.7L138 408Z" fill="#818181" stroke="#818181"></path><path d="M159.7 456.7L140.7 548.3L231 512.3Z" fill="#646464" stroke="#646464"></path><path d="M231 512.3L228.3 620.9L264.3 534.3Z" fill="#eeeeee" stroke="#eeeeee"></path><path d="M264.3 534.3L228.3 620.9L281.3 541Z" fill="#9f9f9f" stroke="#9f9f9f"></path><path d="M281.3 541L299.3 658.1L330.7 528Z" fill="#bebebe" stroke="#bebebe"></path><path d="M60.7 393L75.3 394.7L119.3 367.4Z" fill="#818181" stroke="#818181"></path><path d="M119.3 367.4L75.3 394.7L138 408Z" fill="#cecece" stroke="#cecece"></path><path d="M106 565.6L137 550.9L50.3 557.3Z" fill="#9f9f9f" stroke="#9f9f9f"></path><path d="M140.7 548.3L228.3 620.9L231 512.3Z" fill="#cecece" stroke="#cecece"></path><path d="M402.7 565.6L482.7 477L402 559.3Z" fill="#ffffff" stroke="#ffffff"></path><path d="M462.7 439.3L527.7 415.7L468 388.7Z" fill="#bebebe" stroke="#bebebe"></path><path d="M154 248.9L98.3 297.1L119.3 367.4Z" fill="#727272" stroke="#727272"></path><path d="M154 248.9L128 251.4L98.3 297.1Z" fill="#818181" stroke="#818181"></path><path d="M98.3 297.1L60.7 393L119.3 367.4Z" fill="#aeaeae" stroke="#aeaeae"></path><path d="M75.3 394.7L45.3 421L138 408Z" fill="#646464" stroke="#646464"></path><path d="M194.7 639.9L228.3 620.9L138.7 613.1Z" fill="#ffffff" stroke="#ffffff"></path><path d="M402 279.9L410.7 205.6L380.3 259.9Z" fill="#cecece" stroke="#cecece"></path><path d="M285 128.3L250.3 141.6L257.3 256.1Z" fill="#eeeeee" stroke="#eeeeee"></path><path d="M154 248.9L158 189.1L128 251.4Z" fill="#ffffff" stroke="#ffffff"></path><path d="M486.7 256.1L410.7 205.6L402 279.9Z" fill="#818181" stroke="#818181"></path><path d="M128 251.4L82.7 277.4L98.3 297.1Z" fill="#9f9f9f" stroke="#9f9f9f"></path><path d="M98.3 297.1L55.7 272.1L60.7 393Z" fill="#bebebe" stroke="#bebebe"></path><path d="M228.3 620.9L255.3 638.6L281.3 541Z" fill="#909090" stroke="#909090"></path><path d="M0 415.4L45.3 421L60.7 393Z" fill="#eeeeee" stroke="#eeeeee"></path><path d="M60.7 393L45.3 421L75.3 394.7Z" fill="#727272" stroke="#727272"></path><path d="M482.7 477L527.7 415.7L462.7 439.3Z" fill="#9f9f9f" stroke="#9f9f9f"></path><path d="M468 388.7L486.7 256.1L402 322.1Z" fill="#cecece" stroke="#cecece"></path><path d="M50.3 557.3L137 550.9L159.7 456.7Z" fill="#646464" stroke="#646464"></path><path d="M138.7 613.1L228.3 620.9L140.7 548.3Z" fill="#818181" stroke="#818181"></path><path d="M228.3 620.9L227.7 659.6L255.3 638.6Z" fill="#eeeeee" stroke="#eeeeee"></path><path d="M178.7 161.3L158 189.1L257.3 256.1Z" fill="#bebebe" stroke="#bebebe"></path><path d="M69.3 226.9L55.7 272.1L82.7 277.4Z" fill="#dedede" stroke="#dedede"></path><path d="M560.3 266.4L486.7 256.1L468 388.7Z" fill="#dedede" stroke="#dedede"></path><path d="M138.7 613.1L140.7 548.3L137 550.9Z" fill="#eeeeee" stroke="#eeeeee"></path><path d="M227.7 659.6L299.3 658.1L255.3 638.6Z" fill="#cecece" stroke="#cecece"></path><path d="M255.3 638.6L299.3 658.1L281.3 541Z" fill="#eeeeee" stroke="#eeeeee"></path><path d="M106 565.6L138.7 613.1L137 550.9Z" fill="#aeaeae" stroke="#aeaeae"></path><path d="M285 128.3L257.3 256.1L380.3 259.9Z" fill="#818181" stroke="#818181"></path><path d="M207.7 146.9L178.7 161.3L257.3 256.1Z" fill="#727272" stroke="#727272"></path><path d="M69.3 226.9L82.7 277.4L128 251.4Z" fill="#aeaeae" stroke="#aeaeae"></path><path d="M69.3 226.9L128 251.4L97.3 196.6Z" fill="#eeeeee" stroke="#eeeeee"></path><path d="M82.7 277.4L55.7 272.1L98.3 297.1Z" fill="#727272" stroke="#727272"></path><path d="M250.3 141.6L207.7 146.9L257.3 256.1Z" fill="#bebebe" stroke="#bebebe"></path><path d="M190 673.1L227.7 659.6L194.7 639.9Z" fill="#909090" stroke="#909090"></path><path d="M194.7 639.9L227.7 659.6L228.3 620.9Z" fill="#727272" stroke="#727272"></path><path d="M410.7 205.6L285 128.3L380.3 259.9Z" fill="#727272" stroke="#727272"></path><path d="M250.3 141.6L233.7 108.6L207.7 146.9Z" fill="#909090" stroke="#909090"></path><path d="M97.3 196.6L128 251.4L158 189.1Z" fill="#dedede" stroke="#dedede"></path><path d="M165.7 107.6L97.3 196.6L158 189.1Z" fill="#727272" stroke="#727272"></path><path d="M165.7 107.6L158 189.1L178.7 161.3Z" fill="#aeaeae" stroke="#aeaeae"></path><path d="M482.7 477L566.3 430.7L527.7 415.7Z" fill="#dedede" stroke="#dedede"></path><path d="M527.7 415.7L560.3 266.4L468 388.7Z" fill="#727272" stroke="#727272"></path><path d="M600 473.7L566.3 430.7L482.7 477Z" fill="#727272" stroke="#727272"></path><path d="M600 473.7L482.7 477L582.3 537.3Z" fill="#646464" stroke="#646464"></path><path d="M106 565.6L51.3 625.1L138.7 613.1Z" fill="#dedede" stroke="#dedede"></path><path d="M45.3 421L50.3 557.3L159.7 456.7Z" fill="#bebebe" stroke="#bebebe"></path><path d="M55.7 272.1L0 415.4L60.7 393Z" fill="#818181" stroke="#818181"></path><path d="M45.3 421L0 527L50.3 557.3Z" fill="#909090" stroke="#909090"></path><path d="M0 203.6L0 415.4L55.7 272.1Z" fill="#ffffff" stroke="#ffffff"></path><path d="M311.7 688.1L353.3 677.9L299.3 658.1Z" fill="#646464" stroke="#646464"></path><path d="M299.3 658.1L353.3 677.9L402.7 565.6Z" fill="#909090" stroke="#909090"></path><path d="M0 415.4L0 424.7L45.3 421Z" fill="#cecece" stroke="#cecece"></path><path d="M138.7 613.1L190 673.1L194.7 639.9Z" fill="#aeaeae" stroke="#aeaeae"></path><path d="M310 697.9L311.7 688.1L299.3 658.1Z" fill="#909090" stroke="#909090"></path><path d="M71.3 667.6L190 673.1L138.7 613.1Z" fill="#cecece" stroke="#cecece"></path><path d="M310 697.9L299.3 658.1L227.7 659.6Z" fill="#646464" stroke="#646464"></path><path d="M285 128.3L233.7 108.6L250.3 141.6Z" fill="#909090" stroke="#909090"></path><path d="M207.7 146.9L165.7 107.6L178.7 161.3Z" fill="#818181" stroke="#818181"></path><path d="M97.3 196.6L59.7 204.9L69.3 226.9Z" fill="#909090" stroke="#909090"></path><path d="M69.3 226.9L0 203.6L55.7 272.1Z" fill="#dedede" stroke="#dedede"></path><path d="M0 186.1L59.7 204.9L0 132.9Z" fill="#cecece" stroke="#cecece"></path><path d="M454 77.3L393.7 121.3L410.7 205.6Z" fill="#aeaeae" stroke="#aeaeae"></path><path d="M410.7 205.6L393.7 121.3L285 128.3Z" fill="#646464" stroke="#646464"></path><path d="M285 128.3L281.3 59.3L233.7 108.6Z" fill="#ffffff" stroke="#ffffff"></path><path d="M269 761.4L310 697.9L227.7 659.6Z" fill="#dedede" stroke="#dedede"></path><path d="M311.7 688.1L310 697.9L353.3 677.9Z" fill="#9f9f9f" stroke="#9f9f9f"></path><path d="M566.3 430.7L560.3 266.4L527.7 415.7Z" fill="#909090" stroke="#909090"></path><path d="M486.7 256.1L565.3 154.6L410.7 205.6Z" fill="#cecece" stroke="#cecece"></path><path d="M348.7 722.4L382.7 689.9L353.3 677.9Z" fill="#9f9f9f" stroke="#9f9f9f"></path><path d="M353.3 677.9L382.7 689.9L402.7 565.6Z" fill="#909090" stroke="#909090"></path><path d="M0 527L24.7 570.6L50.3 557.3Z" fill="#ffffff" stroke="#ffffff"></path><path d="M50.3 557.3L51.3 625.1L106 565.6Z" fill="#cecece" stroke="#cecece"></path><path d="M600 239.4L560.7 252.9L560.3 266.4Z" fill="#727272" stroke="#727272"></path><path d="M560.3 266.4L560.7 252.9L486.7 256.1Z" fill="#727272" stroke="#727272"></path><path d="M0 424.7L0 527L45.3 421Z" fill="#727272" stroke="#727272"></path><path d="M233.7 108.6L165.7 107.6L207.7 146.9Z" fill="#eeeeee" stroke="#eeeeee"></path><path d="M582.3 537.3L482.7 477L534.3 644.1Z" fill="#ffffff" stroke="#ffffff"></path><path d="M566.3 430.7L600 239.4L560.3 266.4Z" fill="#909090" stroke="#909090"></path><path d="M0 599.6L51.3 625.1L24.7 570.6Z" fill="#ffffff" stroke="#ffffff"></path><path d="M24.7 570.6L51.3 625.1L50.3 557.3Z" fill="#818181" stroke="#818181"></path><path d="M0 527L0 556.3L24.7 570.6Z" fill="#bebebe" stroke="#bebebe"></path><path d="M534.3 644.1L482.7 477L402.7 565.6Z" fill="#ffffff" stroke="#ffffff"></path><path d="M600 230.1L557.3 216.1L560.7 252.9Z" fill="#909090" stroke="#909090"></path><path d="M560.7 252.9L557.3 216.1L486.7 256.1Z" fill="#646464" stroke="#646464"></path><path d="M328 758.7L348.7 722.4L310 697.9Z" fill="#cecece" stroke="#cecece"></path><path d="M310 697.9L348.7 722.4L353.3 677.9Z" fill="#9f9f9f" stroke="#9f9f9f"></path><path d="M611.3 533.6L600 533L600 588.9Z" fill="#909090" stroke="#909090"></path><path d="M332 57.6L281.3 59.3L285 128.3Z" fill="#818181" stroke="#818181"></path><path d="M233.7 108.6L159.3 38.3L165.7 107.6Z" fill="#727272" stroke="#727272"></path><path d="M582.3 537.3L600 533L600 473.7Z" fill="#646464" stroke="#646464"></path><path d="M534.3 644.1L402.7 565.6L382.7 689.9Z" fill="#818181" stroke="#818181"></path><path d="M0 674.9L71.3 667.6L51.3 625.1Z" fill="#cecece" stroke="#cecece"></path><path d="M51.3 625.1L71.3 667.6L138.7 613.1Z" fill="#ffffff" stroke="#ffffff"></path><path d="M190 673.1L269 761.4L227.7 659.6Z" fill="#bebebe" stroke="#bebebe"></path><path d="M393.7 121.3L332 57.6L285 128.3Z" fill="#818181" stroke="#818181"></path><path d="M379.3 0L332 57.6L393.7 121.3Z" fill="#727272" stroke="#727272"></path><path d="M0 186.1L0 203.6L59.7 204.9Z" fill="#ffffff" stroke="#ffffff"></path><path d="M59.7 204.9L0 203.6L69.3 226.9Z" fill="#bebebe" stroke="#bebebe"></path><path d="M0 556.3L0 599.6L24.7 570.6Z" fill="#eeeeee" stroke="#eeeeee"></path><path d="M518.3 692.9L534.3 644.1L382.7 689.9Z" fill="#9f9f9f" stroke="#9f9f9f"></path><path d="M600 588.9L600 533L582.3 537.3Z" fill="#646464" stroke="#646464"></path><path d="M600 533L611.3 533.6L600 473.7Z" fill="#646464" stroke="#646464"></path><path d="M600 473.7L600 239.4L566.3 430.7Z" fill="#bebebe" stroke="#bebebe"></path><path d="M631.3 177.9L600 239.4L600 473.7Z" fill="#818181" stroke="#818181"></path><path d="M565.3 154.6L454 77.3L410.7 205.6Z" fill="#eeeeee" stroke="#eeeeee"></path><path d="M0 132.9L59.7 204.9L97.3 196.6Z" fill="#909090" stroke="#909090"></path><path d="M631.3 177.9L600 230.1L600 239.4Z" fill="#cecece" stroke="#cecece"></path><path d="M600 239.4L600 230.1L560.7 252.9Z" fill="#9f9f9f" stroke="#9f9f9f"></path><path d="M159.3 38.3L127 77.6L165.7 107.6Z" fill="#dedede" stroke="#dedede"></path><path d="M165.7 107.6L127 77.6L97.3 196.6Z" fill="#ffffff" stroke="#ffffff"></path><path d="M71.3 667.6L149.7 733.4L190 673.1Z" fill="#aeaeae" stroke="#aeaeae"></path><path d="M269 761.4L328 758.7L310 697.9Z" fill="#cecece" stroke="#cecece"></path><path d="M476 754.1L518.3 692.9L382.7 689.9Z" fill="#dedede" stroke="#dedede"></path><path d="M205.3 793.4L269 761.4L190 673.1Z" fill="#646464" stroke="#646464"></path><path d="M631.3 177.9L600 217.9L600 230.1Z" fill="#bebebe" stroke="#bebebe"></path><path d="M600 230.1L600 217.9L557.3 216.1Z" fill="#aeaeae" stroke="#aeaeae"></path><path d="M565.3 154.6L486.7 256.1L557.3 216.1Z" fill="#eeeeee" stroke="#eeeeee"></path><path d="M0 599.6L0 628.1L51.3 625.1Z" fill="#727272" stroke="#727272"></path><path d="M71.3 667.6L138.7 741.7L149.7 733.4Z" fill="#bebebe" stroke="#bebebe"></path><path d="M534.3 644.1L600 588.9L582.3 537.3Z" fill="#9f9f9f" stroke="#9f9f9f"></path><path d="M534.3 644.1L600 592.3L600 588.9Z" fill="#aeaeae" stroke="#aeaeae"></path><path d="M600 588.9L600 592.3L611.3 533.6Z" fill="#646464" stroke="#646464"></path><path d="M0 556.3L-33.3 587.9L0 599.6Z" fill="#cecece" stroke="#cecece"></path><path d="M0 599.6L-33.3 587.9L0 628.1Z" fill="#cecece" stroke="#cecece"></path><path d="M0 527L-33.3 587.9L0 556.3Z" fill="#9f9f9f" stroke="#9f9f9f"></path><path d="M0 424.7L-33.3 587.9L0 527Z" fill="#727272" stroke="#727272"></path><path d="M0 415.4L-33.3 587.9L0 424.7Z" fill="#818181" stroke="#818181"></path><path d="M0 203.6L-33.3 587.9L0 415.4Z" fill="#646464" stroke="#646464"></path><path d="M0 186.1L-33.3 587.9L0 203.6Z" fill="#ffffff" stroke="#ffffff"></path><path d="M0 674.9L138.7 741.7L71.3 667.6Z" fill="#aeaeae" stroke="#aeaeae"></path><path d="M149.7 733.4L205.3 793.4L190 673.1Z" fill="#cecece" stroke="#cecece"></path><path d="M600 217.9L565.3 154.6L557.3 216.1Z" fill="#727272" stroke="#727272"></path><path d="M400.3 786.4L382.7 689.9L348.7 722.4Z" fill="#dedede" stroke="#dedede"></path><path d="M534.3 644.1L600 642.6L600 592.3Z" fill="#727272" stroke="#727272"></path><path d="M281.3 59.3L159.3 38.3L233.7 108.6Z" fill="#646464" stroke="#646464"></path><path d="M127 77.6L0 132.9L97.3 196.6Z" fill="#eeeeee" stroke="#eeeeee"></path><path d="M277.7 0L159.3 38.3L281.3 59.3Z" fill="#aeaeae" stroke="#aeaeae"></path><path d="M45.7 8.3L0 132.9L127 77.6Z" fill="#cecece" stroke="#cecece"></path><path d="M0 186.1L0 132.9L-33.3 587.9Z" fill="#bebebe" stroke="#bebebe"></path><path d="M-33.3 587.9L0 674.9L0 628.1Z" fill="#aeaeae" stroke="#aeaeae"></path><path d="M0 628.1L0 674.9L51.3 625.1Z" fill="#ffffff" stroke="#ffffff"></path><path d="M556.7 729.1L600 642.6L534.3 644.1Z" fill="#ffffff" stroke="#ffffff"></path><path d="M600 592.3L600 642.6L611.3 533.6Z" fill="#727272" stroke="#727272"></path><path d="M308 809.4L358.7 791.7L328 758.7Z" fill="#ffffff" stroke="#ffffff"></path><path d="M328 758.7L358.7 791.7L348.7 722.4Z" fill="#727272" stroke="#727272"></path><path d="M518.3 692.9L556.7 729.1L534.3 644.1Z" fill="#dedede" stroke="#dedede"></path><path d="M308 809.4L328 758.7L269 761.4Z" fill="#bebebe" stroke="#bebebe"></path><path d="M315 0L281.3 59.3L332 57.6Z" fill="#646464" stroke="#646464"></path><path d="M315 0L277.7 0L281.3 59.3Z" fill="#dedede" stroke="#dedede"></path><path d="M379.3 0L315 0L332 57.6Z" fill="#646464" stroke="#646464"></path><path d="M201 852.7L205.3 793.4L138.7 741.7Z" fill="#dedede" stroke="#dedede"></path><path d="M138.7 741.7L205.3 793.4L149.7 733.4Z" fill="#646464" stroke="#646464"></path><path d="M631.3 177.9L600 149.6L600 217.9Z" fill="#909090" stroke="#909090"></path><path d="M600 217.9L600 149.6L565.3 154.6Z" fill="#bebebe" stroke="#bebebe"></path><path d="M565.3 154.6L486.3 21.3L454 77.3Z" fill="#aeaeae" stroke="#aeaeae"></path><path d="M454 77.3L379.3 0L393.7 121.3Z" fill="#909090" stroke="#909090"></path><path d="M400.3 786.4L476 754.1L382.7 689.9Z" fill="#646464" stroke="#646464"></path><path d="M358.7 791.7L400.3 786.4L348.7 722.4Z" fill="#727272" stroke="#727272"></path><path d="M205.3 793.4L308 809.4L269 761.4Z" fill="#646464" stroke="#646464"></path><path d="M426.7 830.7L426.7 795.4L400.3 786.4Z" fill="#bebebe" stroke="#bebebe"></path><path d="M429.7 0L379.3 0L454 77.3Z" fill="#818181" stroke="#818181"></path><path d="M611.3 533.6L631.3 177.9L600 473.7Z" fill="#818181" stroke="#818181"></path><path d="M400.3 786.4L426.7 795.4L476 754.1Z" fill="#9f9f9f" stroke="#9f9f9f"></path><path d="M426.7 830.7L400.3 786.4L358.7 791.7Z" fill="#aeaeae" stroke="#aeaeae"></path><path d="M277.7 0L151 0L159.3 38.3Z" fill="#eeeeee" stroke="#eeeeee"></path><path d="M159.3 38.3L151 0L127 77.6Z" fill="#aeaeae" stroke="#aeaeae"></path><path d="M433.3 0L429.7 0L454 77.3Z" fill="#909090" stroke="#909090"></path><path d="M486.3 21.3L433.3 0L454 77.3Z" fill="#ffffff" stroke="#ffffff"></path><path d="M600 766.7L556.7 729.1L544.3 820.4Z" fill="#9f9f9f" stroke="#9f9f9f"></path><path d="M476 754.1L556.7 729.1L518.3 692.9Z" fill="#9f9f9f" stroke="#9f9f9f"></path><path d="M600 0L486.3 21.3L565.3 154.6Z" fill="#ffffff" stroke="#ffffff"></path><path d="M600 0L565.3 154.6L600 149.6Z" fill="#bebebe" stroke="#bebebe"></path><path d="M353.3 883.7L426.7 830.7L358.7 791.7Z" fill="#dedede" stroke="#dedede"></path><path d="M426.7 795.4L470.3 845.7L476 754.1Z" fill="#909090" stroke="#909090"></path><path d="M353.3 883.7L358.7 791.7L308 809.4Z" fill="#646464" stroke="#646464"></path><path d="M151 0L45.7 8.3L127 77.6Z" fill="#9f9f9f" stroke="#9f9f9f"></path><path d="M138 900L201 852.7L128.3 900Z" fill="#eeeeee" stroke="#eeeeee"></path><path d="M205.3 793.4L201 852.7L308 809.4Z" fill="#818181" stroke="#818181"></path><path d="M151 0L48.3 0L45.7 8.3Z" fill="#727272" stroke="#727272"></path><path d="M45.7 8.3L8.7 0L0 132.9Z" fill="#646464" stroke="#646464"></path><path d="M437 900L470.3 845.7L426.7 830.7Z" fill="#bebebe" stroke="#bebebe"></path><path d="M426.7 830.7L470.3 845.7L426.7 795.4Z" fill="#aeaeae" stroke="#aeaeae"></path><path d="M544.3 820.4L556.7 729.1L476 754.1Z" fill="#909090" stroke="#909090"></path><path d="M556.7 729.1L600 766.7L600 642.6Z" fill="#eeeeee" stroke="#eeeeee"></path><path d="M600 642.6L600 766.7L611.3 533.6Z" fill="#818181" stroke="#818181"></path><path d="M611.3 533.6L600 900L631.3 177.9Z" fill="#bebebe" stroke="#bebebe"></path><path d="M48.3 0L8.7 0L45.7 8.3Z" fill="#646464" stroke="#646464"></path><path d="M0 132.9L0 0L-33.3 587.9Z" fill="#9f9f9f" stroke="#9f9f9f"></path><path d="M301.3 900L353.3 883.7L308 809.4Z" fill="#bebebe" stroke="#bebebe"></path><path d="M8.7 0L0 0L0 132.9Z" fill="#9f9f9f" stroke="#9f9f9f"></path><path d="M470.3 845.7L544.3 820.4L476 754.1Z" fill="#727272" stroke="#727272"></path><path d="M252.7 900L301.3 900L308 809.4Z" fill="#818181" stroke="#818181"></path><path d="M48.3 0L0 -11.7L8.7 0Z" fill="#818181" stroke="#818181"></path><path d="M8.7 0L0 -11.7L0 0Z" fill="#646464" stroke="#646464"></path><path d="M0 0L0 -11.7L-33.3 587.9Z" fill="#9f9f9f" stroke="#9f9f9f"></path><path d="M151 0L0 -11.7L48.3 0Z" fill="#ffffff" stroke="#ffffff"></path><path d="M277.7 0L0 -11.7L151 0Z" fill="#cecece" stroke="#cecece"></path><path d="M600 -35.7L0 -11.7L277.7 0Z" fill="#727272" stroke="#727272"></path><path d="M600 -35.7L277.7 0L315 0Z" fill="#909090" stroke="#909090"></path><path d="M600 -35.7L315 0L379.3 0Z" fill="#646464" stroke="#646464"></path><path d="M600 -35.7L379.3 0L429.7 0Z" fill="#727272" stroke="#727272"></path><path d="M201 852.7L252.7 900L308 809.4Z" fill="#818181" stroke="#818181"></path><path d="M184.3 913.7L252.7 900L201 852.7Z" fill="#dedede" stroke="#dedede"></path><path d="M486.3 21.3L600 -35.7L433.3 0Z" fill="#cecece" stroke="#cecece"></path><path d="M433.3 0L600 -35.7L429.7 0Z" fill="#818181" stroke="#818181"></path><path d="M631.3 177.9L600 0L600 149.6Z" fill="#aeaeae" stroke="#aeaeae"></path><path d="M600 812.4L544.3 820.4L592.3 900Z" fill="#dedede" stroke="#dedede"></path><path d="M600 812.4L600 804.1L544.3 820.4Z" fill="#aeaeae" stroke="#aeaeae"></path><path d="M544.3 820.4L600 804.1L600 766.7Z" fill="#aeaeae" stroke="#aeaeae"></path><path d="M600 766.7L600 804.1L611.3 533.6Z" fill="#cecece" stroke="#cecece"></path><path d="M514.7 900L544.3 820.4L470.3 845.7Z" fill="#727272" stroke="#727272"></path><path d="M600 804.1L600 812.4L611.3 533.6Z" fill="#aeaeae" stroke="#aeaeae"></path><path d="M437 900L426.7 830.7L353.3 883.7Z" fill="#727272" stroke="#727272"></path><path d="M128.3 900L201 852.7L138.7 741.7Z" fill="#cecece" stroke="#cecece"></path><path d="M301.3 900L437 900L353.3 883.7Z" fill="#bebebe" stroke="#bebebe"></path><path d="M138 900L184.3 913.7L201 852.7Z" fill="#909090" stroke="#909090"></path><path d="M252.7 900L184.3 913.7L301.3 900Z" fill="#727272" stroke="#727272"></path><path d="M301.3 900L184.3 913.7L437 900Z" fill="#9f9f9f" stroke="#9f9f9f"></path><path d="M0 858.4L128.3 900L138.7 741.7Z" fill="#dedede" stroke="#dedede"></path><path d="M138 900L128.3 900L184.3 913.7Z" fill="#818181" stroke="#818181"></path><path d="M631.3 177.9L600 -35.7L600 0Z" fill="#eeeeee" stroke="#eeeeee"></path><path d="M600 0L600 -35.7L486.3 21.3Z" fill="#eeeeee" stroke="#eeeeee"></path><path d="M0 674.9L0 858.4L138.7 741.7Z" fill="#9f9f9f" stroke="#9f9f9f"></path><path d="M-28.3 900L0 858.4L0 674.9Z" fill="#cecece" stroke="#cecece"></path><path d="M184.3 913.7L514.7 900L437 900Z" fill="#9f9f9f" stroke="#9f9f9f"></path><path d="M437 900L514.7 900L470.3 845.7Z" fill="#727272" stroke="#727272"></path><path d="M128.3 900L0 900L184.3 913.7Z" fill="#646464" stroke="#646464"></path><path d="M0 858.4L0 885.7L128.3 900Z" fill="#909090" stroke="#909090"></path><path d="M-28.3 900L0 885.7L0 858.4Z" fill="#bebebe" stroke="#bebebe"></path><path d="M-28.3 900L0 900L0 885.7Z" fill="#727272" stroke="#727272"></path><path d="M0 885.7L0 900L128.3 900Z" fill="#eeeeee" stroke="#eeeeee"></path><path d="M184.3 913.7L592.3 900L514.7 900Z" fill="#909090" stroke="#909090"></path><path d="M514.7 900L592.3 900L544.3 820.4Z" fill="#727272" stroke="#727272"></path><path d="M-33.3 587.9L-28.3 900L0 674.9Z" fill="#cecece" stroke="#cecece"></path><path d="M0 900L-28.3 900L184.3 913.7Z" fill="#aeaeae" stroke="#aeaeae"></path><path d="M184.3 913.7L600 900L592.3 900Z" fill="#727272" stroke="#727272"></path><path d="M592.3 900L600 900L600 812.4Z" fill="#dedede" stroke="#dedede"></path><path d="M600 812.4L600 900L611.3 533.6Z" fill="#727272" stroke="#727272"></path></g></svg>