<svg width="461" height="540" viewBox="0 0 461 540" fill="none" xmlns="http://www.w3.org/2000/svg">
<g id="waves2 1" clip-path="url(#clip0_1_2)">
<g id="wave_4">
<path id="Vector" d="M437.5 0L427.812 12.8C418.021 25.7 398.646 51.3 395.104 77C391.667 102.7 404.167 128.3 401.354 154C398.646 179.7 380.521 205.3 366.458 231.2C352.396 257 342.396 283 350.312 308.8C358.333 334.7 384.375 360.3 401.25 386C418.021 411.7 425.729 437.3 434.062 463C442.396 488.7 451.354 514.3 455.937 527.2L460.417 540H0V527.2C0 514.3 0 488.7 0 463C0 437.3 0 411.7 0 386C0 360.3 0 334.7 0 308.8C0 283 0 257 0 231.2C0 205.3 0 179.7 0 154C0 128.3 0 102.7 0 77C0 51.3 0 25.7 0 12.8V0H437.5Z" fill="#00A377"/>
</g>
<g id="wave_5">
<path id="Vector_2" d="M490.625 0L480.938 12.8C471.146 25.7 451.771 51.3 444.063 77C436.458 102.7 440.625 128.3 445.625 154C450.729 179.7 456.563 205.3 454.688 231.2C452.813 257 443.021 283 438.333 308.8C433.646 334.7 434.063 360.3 439.583 386C445.104 411.7 455.938 437.3 469.583 463C483.333 488.7 500 514.3 508.333 527.2L516.667 540H0V527.2C0 514.3 0 488.7 0 463C0 437.3 0 411.7 0 386C0 360.3 0 334.7 0 308.8C0 283 0 257 0 231.2C0 205.3 0 179.7 0 154C0 128.3 0 102.7 0 77C0 51.3 0 25.7 0 12.8V0H490.625Z" fill="#00BD83"/>
</g>
<g id="wave_3">
<path id="Vector_3" d="M251.042 0L255.417 12.8C259.688 25.7 268.438 51.3 277.813 77C287.188 102.7 297.188 128.3 298.125 154C298.958 179.7 290.625 205.3 281.458 231.2C272.188 257 262.188 283 266.458 308.8C270.833 334.7 289.583 360.3 306.563 386C323.646 411.7 338.854 437.3 338.542 463C338.229 488.7 322.188 514.3 314.271 527.2L306.25 540H0V527.2C0 514.3 0 488.7 0 463C0 437.3 0 411.7 0 386C0 360.3 0 334.7 0 308.8C0 283 0 257 0 231.2C0 205.3 0 179.7 0 154C0 128.3 0 102.7 0 77C0 51.3 0 25.7 0 12.8V0H251.042Z" fill="#008A69"/>
</g>
<g id="wave_2">
<path id="Vector_4" d="M135.417 0L150.833 12.8C166.354 25.7 197.187 51.3 204.896 77C212.5 102.7 196.875 128.3 181.562 154C166.354 179.7 151.354 205.3 148.958 231.2C146.562 257 156.562 283 162.5 308.8C168.437 334.7 170.104 360.3 183.646 386C197.187 411.7 222.604 437.3 222.708 463C222.917 488.7 197.917 514.3 185.417 527.2L172.917 540H0V527.2C0 514.3 0 488.7 0 463C0 437.3 0 411.7 0 386C0 360.3 0 334.7 0 308.8C0 283 0 257 0 231.2C0 205.3 0 179.7 0 154C0 128.3 0 102.7 0 77C0 51.3 0 25.7 0 12.8V0H135.417Z" fill="#00715A"/>
</g>
<g id="wave_1">
<path id="Vector_5" d="M112.5 0L105.417 12.8C98.2292 25.7 84.0625 51.3 92.7083 77C101.354 102.7 133.021 128.3 147.187 154C161.458 179.7 158.333 205.3 141.979 231.2C125.729 257 96.1458 283 88.3333 308.8C80.5208 334.7 94.4792 360.3 98.2292 386C102.083 411.7 95.8333 437.3 105.417 463C114.896 488.7 140.312 514.3 152.917 527.2L165.625 540H0V527.2C0 514.3 0 488.7 0 463C0 437.3 0 411.7 0 386C0 360.3 0 334.7 0 308.8C0 283 0 257 0 231.2C0 205.3 0 179.7 0 154C0 128.3 0 102.7 0 77C0 51.3 0 25.7 0 12.8V0H112.5Z" fill="#03594A"/>
</g>
</g>
<defs>
<clipPath id="clip0_1_2">
<rect width="460.417" height="540" fill="white"/>
</clipPath>
</defs>
</svg>
