<svg id="visual" viewBox="0 0 1920 1080" width="1920" height="1080" xmlns="http://www.w3.org/2000/svg" xmlns:xlink="http://www.w3.org/1999/xlink" version="1.1"><path d="M1071 0L1065.7 25.7C1060.3 51.3 1049.7 102.7 1028.5 154.2C1007.3 205.7 975.7 257.3 975.5 308.8C975.3 360.3 1006.7 411.7 1011.8 463C1017 514.3 996 565.7 977.3 617C958.7 668.3 942.3 719.7 938.8 771.2C935.3 822.7 944.7 874.3 957.2 925.8C969.7 977.3 985.3 1028.7 993.2 1054.3L1001 1080L0 1080L0 1054.3C0 1028.7 0 977.3 0 925.8C0 874.3 0 822.7 0 771.2C0 719.7 0 668.3 0 617C0 565.7 0 514.3 0 463C0 411.7 0 360.3 0 308.8C0 257.3 0 205.7 0 154.2C0 102.7 0 51.3 0 25.7L0 0Z" fill="#00bd83"></path><path d="M889 0L887.5 25.7C886 51.3 883 102.7 864.5 154.2C846 205.7 812 257.3 806 308.8C800 360.3 822 411.7 802.2 463C782.3 514.3 720.7 565.7 715.7 617C710.7 668.3 762.3 719.7 785.2 771.2C808 822.7 802 874.3 806.3 925.8C810.7 977.3 825.3 1028.7 832.7 1054.3L840 1080L0 1080L0 1054.3C0 1028.7 0 977.3 0 925.8C0 874.3 0 822.7 0 771.2C0 719.7 0 668.3 0 617C0 565.7 0 514.3 0 463C0 411.7 0 360.3 0 308.8C0 257.3 0 205.7 0 154.2C0 102.7 0 51.3 0 25.7L0 0Z" fill="#00a377"></path><path d="M689 0L684.8 25.7C680.7 51.3 672.3 102.7 638.5 154.2C604.7 205.7 545.3 257.3 529.3 308.8C513.3 360.3 540.7 411.7 555 463C569.3 514.3 570.7 565.7 582.2 617C593.7 668.3 615.3 719.7 598 771.2C580.7 822.7 524.3 874.3 492.2 925.8C460 977.3 452 1028.7 448 1054.3L444 1080L0 1080L0 1054.3C0 1028.7 0 977.3 0 925.8C0 874.3 0 822.7 0 771.2C0 719.7 0 668.3 0 617C0 565.7 0 514.3 0 463C0 411.7 0 360.3 0 308.8C0 257.3 0 205.7 0 154.2C0 102.7 0 51.3 0 25.7L0 0Z" fill="#008a69"></path><path d="M279 0L308.2 25.7C337.3 51.3 395.7 102.7 407 154.2C418.3 205.7 382.7 257.3 372.7 308.8C362.7 360.3 378.3 411.7 405.5 463C432.7 514.3 471.3 565.7 485.5 617C499.7 668.3 489.3 719.7 448.5 771.2C407.7 822.7 336.3 874.3 313.5 925.8C290.7 977.3 316.3 1028.7 329.2 1054.3L342 1080L0 1080L0 1054.3C0 1028.7 0 977.3 0 925.8C0 874.3 0 822.7 0 771.2C0 719.7 0 668.3 0 617C0 565.7 0 514.3 0 463C0 411.7 0 360.3 0 308.8C0 257.3 0 205.7 0 154.2C0 102.7 0 51.3 0 25.7L0 0Z" fill="#00715a"></path><path d="M172 0L194.8 25.7C217.7 51.3 263.3 102.7 252.8 154.2C242.3 205.7 175.7 257.3 140.8 308.8C106 360.3 103 411.7 102.7 463C102.3 514.3 104.7 565.7 105.5 617C106.3 668.3 105.7 719.7 102.3 771.2C99 822.7 93 874.3 93.7 925.8C94.3 977.3 101.7 1028.7 105.3 1054.3L109 1080L0 1080L0 1054.3C0 1028.7 0 977.3 0 925.8C0 874.3 0 822.7 0 771.2C0 719.7 0 668.3 0 617C0 565.7 0 514.3 0 463C0 411.7 0 360.3 0 308.8C0 257.3 0 205.7 0 154.2C0 102.7 0 51.3 0 25.7L0 0Z" fill="#03594a"></path></svg>