<svg id="visual" viewBox="0 0 960 540" width="960" height="540" xmlns="http://www.w3.org/2000/svg" xmlns:xlink="http://www.w3.org/1999/xlink" version="1.1"><path d="M471 0L461.7 12.8C452.3 25.7 433.7 51.3 426.3 77C419 102.7 423 128.3 427.8 154C432.7 179.7 438.3 205.3 436.5 231.2C434.7 257 425.3 283 420.8 308.8C416.3 334.7 416.7 360.3 422 386C427.3 411.7 437.7 437.3 450.8 463C464 488.7 480 514.3 488 527.2L496 540L0 540L0 527.2C0 514.3 0 488.7 0 463C0 437.3 0 411.7 0 386C0 360.3 0 334.7 0 308.8C0 283 0 257 0 231.2C0 205.3 0 179.7 0 154C0 128.3 0 102.7 0 77C0 51.3 0 25.7 0 12.8L0 0Z" fill="#00bd83"></path><path d="M420 0L410.7 12.8C401.3 25.7 382.7 51.3 379.3 77C376 102.7 388 128.3 385.3 154C382.7 179.7 365.3 205.3 351.8 231.2C338.3 257 328.7 283 336.3 308.8C344 334.7 369 360.3 385.2 386C401.3 411.7 408.7 437.3 416.7 463C424.7 488.7 433.3 514.3 437.7 527.2L442 540L0 540L0 527.2C0 514.3 0 488.7 0 463C0 437.3 0 411.7 0 386C0 360.3 0 334.7 0 308.8C0 283 0 257 0 231.2C0 205.3 0 179.7 0 154C0 128.3 0 102.7 0 77C0 51.3 0 25.7 0 12.8L0 0Z" fill="#00a377"></path><path d="M241 0L245.2 12.8C249.3 25.7 257.7 51.3 266.7 77C275.7 102.7 285.3 128.3 286.2 154C287 179.7 279 205.3 270.2 231.2C261.3 257 251.7 283 255.8 308.8C260 334.7 278 360.3 294.3 386C310.7 411.7 325.3 437.3 325 463C324.7 488.7 309.3 514.3 301.7 527.2L294 540L0 540L0 527.2C0 514.3 0 488.7 0 463C0 437.3 0 411.7 0 386C0 360.3 0 334.7 0 308.8C0 283 0 257 0 231.2C0 205.3 0 179.7 0 154C0 128.3 0 102.7 0 77C0 51.3 0 25.7 0 12.8L0 0Z" fill="#008a69"></path><path d="M130 0L144.8 12.8C159.7 25.7 189.3 51.3 196.7 77C204 102.7 189 128.3 174.3 154C159.7 179.7 145.3 205.3 143 231.2C140.7 257 150.3 283 156 308.8C161.7 334.7 163.3 360.3 176.3 386C189.3 411.7 213.7 437.3 213.8 463C214 488.7 190 514.3 178 527.2L166 540L0 540L0 527.2C0 514.3 0 488.7 0 463C0 437.3 0 411.7 0 386C0 360.3 0 334.7 0 308.8C0 283 0 257 0 231.2C0 205.3 0 179.7 0 154C0 128.3 0 102.7 0 77C0 51.3 0 25.7 0 12.8L0 0Z" fill="#00715a"></path><path d="M108 0L101.2 12.8C94.3 25.7 80.7 51.3 89 77C97.3 102.7 127.7 128.3 141.3 154C155 179.7 152 205.3 136.3 231.2C120.7 257 92.3 283 84.8 308.8C77.3 334.7 90.7 360.3 94.3 386C98 411.7 92 437.3 101.2 463C110.3 488.7 134.7 514.3 146.8 527.2L159 540L0 540L0 527.2C0 514.3 0 488.7 0 463C0 437.3 0 411.7 0 386C0 360.3 0 334.7 0 308.8C0 283 0 257 0 231.2C0 205.3 0 179.7 0 154C0 128.3 0 102.7 0 77C0 51.3 0 25.7 0 12.8L0 0Z" fill="#03594a"></path></svg>