<svg id="visual" viewBox="0 0 960 540" xmlns="http://www.w3.org/2000/svg" xmlns:xlink="http://www.w3.org/1999/xlink" version="1.1"><path id="wave1" d="M453 0L456.8 9C460.7 18 468.3 36 476.5 54C484.7 72 493.3 90 481.8 108C470.3 126 438.7 144 434 162C429.3 180 451.7 198 454.2 216C456.7 234 439.3 252 443.5 270C447.7 288 473.3 306 474.7 324C476 342 453 360 437.7 378C422.3 396 414.7 414 413 432C411.3 450 415.7 468 425.5 486C435.3 504 450.7 522 458.3 531L466 540L0 540L0 531C0 522 0 504 0 486C0 468 0 450 0 432C0 414 0 396 0 378C0 360 0 342 0 324C0 306 0 288 0 270C0 252 0 234 0 216C0 198 0 180 0 162C0 144 0 126 0 108C0 90 0 72 0 54C0 36 0 18 0 9L0 0Z" fill="#00bd83"></path><path d="M326 0L324.3 9C322.7 18 319.3 36 332.7 54C346 72 376 90 378 108C380 126 354 144 352.7 162C351.3 180 374.7 198 385.7 216C396.7 234 395.3 252 391.5 270C387.7 288 381.3 306 383.3 324C385.3 342 395.7 360 404 378C412.3 396 418.7 414 412.8 432C407 450 389 468 386.2 486C383.3 504 395.7 522 401.8 531L408 540L0 540L0 531C0 522 0 504 0 486C0 468 0 450 0 432C0 414 0 396 0 378C0 360 0 342 0 324C0 306 0 288 0 270C0 252 0 234 0 216C0 198 0 180 0 162C0 144 0 126 0 108C0 90 0 72 0 54C0 36 0 18 0 9L0 0Z" fill="#00a377"></path><path d="M299 0L302.3 9C305.7 18 312.3 36 301.7 54C291 72 263 90 254.7 108C246.3 126 257.7 144 264.7 162C271.7 180 274.3 198 272.5 216C270.7 234 264.3 252 268.8 270C273.3 288 288.7 306 296.8 324C305 342 306 360 304.3 378C302.7 396 298.3 414 292.7 432C287 450 280 468 272.8 486C265.7 504 258.3 522 254.7 531L251 540L0 540L0 531C0 522 0 504 0 486C0 468 0 450 0 432C0 414 0 396 0 378C0 360 0 342 0 324C0 306 0 288 0 270C0 252 0 234 0 216C0 198 0 180 0 162C0 144 0 126 0 108C0 90 0 72 0 54C0 36 0 18 0 9L0 0Z" fill="#008a69"></path><path d="M159 0L164.8 9C170.7 18 182.3 36 193.3 54C204.3 72 214.7 90 209.2 108C203.7 126 182.3 144 181.2 162C180 180 199 198 196 216C193 234 168 252 169.3 270C170.7 288 198.3 306 205.3 324C212.3 342 198.7 360 193.2 378C187.7 396 190.3 414 187.8 432C185.3 450 177.7 468 176.3 486C175 504 180 522 182.5 531L185 540L0 540L0 531C0 522 0 504 0 486C0 468 0 450 0 432C0 414 0 396 0 378C0 360 0 342 0 324C0 306 0 288 0 270C0 252 0 234 0 216C0 198 0 180 0 162C0 144 0 126 0 108C0 90 0 72 0 54C0 36 0 18 0 9L0 0Z" fill="#00715a"></path><path d="M88 0L84.3 9C80.7 18 73.3 36 73.8 54C74.3 72 82.7 90 83.8 108C85 126 79 144 72.5 162C66 180 59 198 67 216C75 234 98 252 108.3 270C118.7 288 116.3 306 114.7 324C113 342 112 360 107 378C102 396 93 414 88.2 432C83.3 450 82.7 468 84.5 486C86.3 504 90.7 522 92.8 531L95 540L0 540L0 531C0 522 0 504 0 486C0 468 0 450 0 432C0 414 0 396 0 378C0 360 0 342 0 324C0 306 0 288 0 270C0 252 0 234 0 216C0 198 0 180 0 162C0 144 0 126 0 108C0 90 0 72 0 54C0 36 0 18 0 9L0 0Z" fill="#03594a"></path></svg>